<svg width="529" height="445" viewBox="0 0 529 445" fill="none" xmlns="http://www.w3.org/2000/svg">
<g clip-path="url(#clip0_39_827)">
<g opacity="0.25">
<g opacity="0.41">
<path d="M523.555 294.51C524.021 286.488 523.81 278.433 522.912 270.455C518.665 232.974 499.448 197.635 471.171 172.703C461.08 163.804 449.603 155.838 443.038 144.099C431.982 124.326 432.814 101.591 419.097 82.0741C405.358 62.5237 385.331 47.2783 362.754 39.4559C295.422 16.1108 201.165 54.1243 209.648 135.289C209.682 135.577 209.715 135.999 209.748 136.542C210.879 153.408 197.65 167.577 180.817 167.976C118.696 169.452 65.2253 217.374 53.7815 278.078C46.4184 317.112 58.4722 359.908 87.0152 387.525C108.317 408.14 136.905 419.469 165.503 427.247C222.844 442.847 283.179 446.121 342.306 440.151C397.651 434.57 456.023 418.648 491.819 376.041C510.914 353.317 521.848 324.169 523.566 294.51H523.555Z" fill="#53D0F7"/>
</g>
<g opacity="0.31">
<path d="M498.308 95.7973C501.083 84.0302 493.8 72.2397 482.04 69.4624C470.28 66.6851 458.496 73.9728 455.721 85.7399C452.945 97.507 460.228 109.298 471.988 112.075C483.748 114.852 495.532 107.564 498.308 95.7973Z" fill="#53D0F7"/>
</g>
<g opacity="0.31">
<path d="M438.558 68.8815C442.759 68.8815 446.165 65.4736 446.165 61.2699C446.165 57.0661 442.759 53.6583 438.558 53.6583C434.357 53.6583 430.951 57.0661 430.951 61.2699C430.951 65.4736 434.357 68.8815 438.558 68.8815Z" fill="#53D0F7"/>
</g>
<g opacity="0.31">
<path d="M178.666 54.2696C179.959 48.7886 176.566 43.2967 171.088 42.0031C165.611 40.7094 160.122 44.104 158.829 49.5849C157.536 55.0659 160.929 60.5578 166.407 61.8514C171.884 63.145 177.373 59.7505 178.666 54.2696Z" fill="#53D0F7"/>
</g>
<g opacity="0.31">
<path d="M51.2312 445C64.0493 445 74.4405 434.603 74.4405 421.777C74.4405 408.951 64.0493 398.554 51.2312 398.554C38.4131 398.554 28.022 408.951 28.022 421.777C28.022 434.603 38.4131 445 51.2312 445Z" fill="#53D0F7"/>
</g>
</g>
<g opacity="0.25">
<g opacity="0.47">
<path d="M9.34811 307.193C2.35096 309.356 -1.57454 316.79 0.587808 323.792C2.75016 330.793 11.6768 339.581 18.685 337.417C25.6822 335.253 22.6771 324.158 24.163 316.979C26.2366 306.971 16.3563 305.018 9.34811 307.182V307.193Z" fill="#53D0F7"/>
</g>
<g opacity="0.47">
<path d="M88.6565 87.6663C83.4114 77.88 71.2246 74.2074 61.4552 79.4556C51.6747 84.7038 41.2067 100.537 46.4518 110.324C51.6969 120.11 67.2991 112.41 78.3992 112.543C93.8794 112.72 93.9016 97.4526 88.6565 87.6663Z" fill="#53D0F7"/>
</g>
<g opacity="0.47">
<path d="M521.293 362.56C528.235 351.52 529.976 337.817 528.523 324.846C527.082 311.964 523.145 298.438 517.634 286.721C512.411 275.615 504.848 265.706 502.697 253.335C499.847 236.991 507.31 221.279 509.04 205.246C512.489 173.324 490.932 145.208 464.185 130.018C442.462 117.68 417.001 113.053 392.029 113.386C369.552 113.685 347.119 117.669 325.34 123.039C304.348 128.21 283.834 135.022 261.833 132.87C243.536 131.083 227.058 123.483 210.014 117.813C169.329 104.276 120.061 102.368 82.857 122.972C58.9824 136.198 42.2713 157.68 34.8639 180.769C29.4303 197.679 27.8224 217.13 31.8033 234.25C36.2722 253.49 44.5335 270.422 42.3489 290.694C40.5636 307.315 34.4536 323.525 34.9969 340.391C35.4627 354.882 40.8852 369.384 49.3239 381.1C49.8673 381.855 50.455 382.598 51.0981 383.264H497.563C506.911 378.227 515.638 371.536 521.282 362.549L521.293 362.56Z" fill="#53D0F7"/>
</g>
<g opacity="0.81">
<path d="M463.974 351.497C465.56 339.181 461.856 327.742 462.333 315.77C463.264 292.746 484.4 276.857 491.774 256.153C501.1 229.945 500.657 200.586 489.324 175.044C483.868 162.739 475.895 151.3 465.005 143.388C448.217 131.194 426.216 128.52 405.535 130.063C374.752 132.359 342.261 145.175 311.312 141.68C294.235 139.749 289.012 121.974 280.196 110.257C270.216 96.9977 256.632 86.5789 241.607 79.6553C213.94 66.8843 180.728 65.6748 152.451 77.2586C122.256 89.6191 95.9418 119.81 97.6717 153.94C98.4701 169.729 105.046 185.419 102.008 200.941C98.1818 220.414 82.9234 238.167 71.8566 254.034C59.6365 271.554 52.2401 292.458 50.7986 313.772C49.1574 337.95 55.1676 362.582 67.7425 383.286H453.362C458.962 373.533 462.544 362.649 463.974 351.497Z" fill="#53D0F7"/>
</g>
</g>
<path d="M493.737 388.035H55.212C54.2473 388.035 53.46 387.247 53.46 386.282C53.46 385.317 54.2473 384.529 55.212 384.529H493.737C494.702 384.529 495.489 385.317 495.489 386.282C495.489 387.247 494.702 388.035 493.737 388.035Z" fill="#233863"/>
<path d="M231.194 32.155C233.632 32.155 235.608 30.1779 235.608 27.739C235.608 25.3001 233.632 23.3229 231.194 23.3229C228.757 23.3229 226.781 25.3001 226.781 27.739C226.781 30.1779 228.757 32.155 231.194 32.155Z" fill="#FFB44F"/>
<path d="M48.603 2.87376C48.603 4.46043 47.3167 5.74752 45.7309 5.74752C44.1452 5.74752 42.8589 4.46043 42.8589 2.87376C42.8589 1.28709 44.1452 0 45.7309 0C47.3167 0 48.603 1.28709 48.603 2.87376Z" fill="#FFB44F"/>
<path d="M520.916 138.54C522.502 138.54 523.788 137.253 523.788 135.666C523.788 134.079 522.502 132.792 520.916 132.792C519.33 132.792 518.044 134.079 518.044 135.666C518.044 137.253 519.33 138.54 520.916 138.54Z" fill="#FFB44F"/>
<path d="M441.441 64.1547C441.441 65.7414 440.155 67.0285 438.569 67.0285C436.984 67.0285 435.697 65.7414 435.697 64.1547C435.697 62.5681 436.984 61.281 438.569 61.281C440.155 61.281 441.441 62.5681 441.441 64.1547Z" fill="#FFB44F"/>
<path d="M63.6285 47.8109C63.6285 49.6861 62.1094 51.1951 60.2464 51.1951C58.3835 51.1951 56.8643 49.675 56.8643 47.8109C56.8643 45.9469 58.3835 44.4268 60.2464 44.4268C62.1094 44.4268 63.6285 45.9469 63.6285 47.8109Z" fill="#3887FE"/>
<path d="M488.226 44.4157C488.226 46.2908 486.707 47.7998 484.844 47.7998C482.981 47.7998 481.461 46.2797 481.461 44.4157C481.461 42.5516 482.981 41.0315 484.844 41.0315C486.707 41.0315 488.226 42.5516 488.226 44.4157Z" fill="#3887FE"/>
<path d="M87.6254 5.90284C87.6254 6.72392 86.96 7.40075 86.1284 7.40075C85.2967 7.40075 84.6313 6.73501 84.6313 5.90284C84.6313 5.07067 85.2967 4.40494 86.1284 4.40494C86.96 4.40494 87.6254 5.07067 87.6254 5.90284Z" fill="#233863"/>
<path d="M285.907 53.6694C285.907 54.4905 285.242 55.1673 284.41 55.1673C283.578 55.1673 282.913 54.5016 282.913 53.6694C282.913 52.8372 283.578 52.1715 284.41 52.1715C285.242 52.1715 285.907 52.8372 285.907 53.6694Z" fill="#233863"/>
<path d="M438.614 23.3229C438.614 24.144 437.948 24.8209 437.117 24.8209C436.285 24.8209 435.62 24.1551 435.62 23.3229C435.62 22.4908 436.285 21.825 437.117 21.825C437.948 21.825 438.614 22.4908 438.614 23.3229Z" fill="#233863"/>
<g opacity="0.61">
<path d="M406.622 349.678H378.645C378.035 349.678 377.536 349.178 377.536 348.568C377.536 347.958 378.035 347.459 378.645 347.459H406.622C407.232 347.459 407.731 347.958 407.731 348.568C407.731 349.178 407.232 349.678 406.622 349.678Z" fill="white"/>
<path d="M466.492 349.678H423.655C423.045 349.678 422.546 349.178 422.546 348.568C422.546 347.958 423.045 347.459 423.655 347.459H466.492C467.101 347.459 467.6 347.958 467.6 348.568C467.6 349.178 467.101 349.678 466.492 349.678Z" fill="white"/>
<path d="M449.115 359.653H378.634C378.024 359.653 377.525 359.153 377.525 358.543C377.525 357.933 378.024 357.434 378.634 357.434H449.115C449.725 357.434 450.224 357.933 450.224 358.543C450.224 359.153 449.725 359.653 449.115 359.653Z" fill="white"/>
<path d="M425.34 369.628H378.645C378.035 369.628 377.536 369.128 377.536 368.518C377.536 367.908 378.035 367.408 378.645 367.408H425.34C425.95 367.408 426.449 367.908 426.449 368.518C426.449 369.128 425.95 369.628 425.34 369.628Z" fill="white"/>
<path d="M114.317 314.693H42.0054C41.3955 314.693 40.8965 314.194 40.8965 313.584C40.8965 312.973 41.3955 312.474 42.0054 312.474H114.317C114.927 312.474 115.426 312.973 115.426 313.584C115.426 314.194 114.927 314.693 114.317 314.693Z" fill="white"/>
<path d="M114.317 292.336H42.0054C41.3955 292.336 40.8965 291.836 40.8965 291.226C40.8965 290.616 41.3955 290.117 42.0054 290.117H114.317C114.927 290.117 115.426 290.616 115.426 291.226C115.426 291.836 114.927 292.336 114.317 292.336Z" fill="white"/>
<path d="M114.317 303.509H75.3276C74.7178 303.509 74.2188 303.01 74.2188 302.399C74.2188 301.789 74.7178 301.29 75.3276 301.29H114.317C114.926 301.29 115.425 301.789 115.425 302.399C115.425 303.01 114.926 303.509 114.317 303.509Z" fill="white"/>
<path d="M114.317 280.474H75.3276C74.7178 280.474 74.2188 279.975 74.2188 279.365C74.2188 278.755 74.7178 278.255 75.3276 278.255H114.317C114.926 278.255 115.425 278.755 115.425 279.365C115.425 279.975 114.926 280.474 114.317 280.474Z" fill="white"/>
<path d="M114.316 269.812H88.0244C87.4145 269.812 86.9155 269.312 86.9155 268.702C86.9155 268.092 87.4145 267.592 88.0244 267.592H114.316C114.926 267.592 115.425 268.092 115.425 268.702C115.425 269.312 114.926 269.812 114.316 269.812Z" fill="white"/>
</g>
<path d="M438.425 360.207H376.194C375.274 360.207 374.531 359.464 374.531 358.543C374.531 357.622 375.274 356.879 376.194 356.879H436.762V336.23C436.762 335.309 437.505 334.566 438.425 334.566C439.346 334.566 440.089 335.309 440.089 336.23V358.543C440.089 359.464 439.346 360.207 438.425 360.207Z" fill="#233863"/>
<path d="M400.024 263.054H340.709C340.099 263.054 339.6 262.555 339.6 261.945V229.901C339.6 229.291 340.099 228.791 340.709 228.791C341.319 228.791 341.818 229.291 341.818 229.901V260.835H400.024C400.634 260.835 401.133 261.335 401.133 261.945C401.133 262.555 400.634 263.054 400.024 263.054Z" fill="#233863"/>
<path d="M243.869 105.608H226.304C225.694 105.608 225.195 105.109 225.195 104.498V66.7622H196.187C195.577 66.7622 195.078 66.2629 195.078 65.6526C195.078 65.0424 195.577 64.5431 196.187 64.5431H226.304C226.914 64.5431 227.413 65.0424 227.413 65.6526V103.389H243.869C244.479 103.389 244.978 103.888 244.978 104.498C244.978 105.109 244.479 105.608 243.869 105.608Z" fill="#233863"/>
<path d="M216.169 306.505C215.249 306.505 214.506 305.761 214.506 304.84V248.697H182.359C181.438 248.697 180.695 247.953 180.695 247.032V178.129C180.695 177.208 181.438 176.464 182.359 176.464C183.279 176.464 184.022 177.208 184.022 178.129V245.368H216.169C217.089 245.368 217.832 246.111 217.832 247.032V304.84C217.832 305.761 217.089 306.505 216.169 306.505Z" fill="#233863"/>
<path d="M409.261 101.758H315.992C313.608 101.758 311.678 100.271 311.678 98.4512V36.4823C311.678 34.6515 313.608 33.1758 315.992 33.1758H409.261C411.645 33.1758 413.575 34.6626 413.575 36.4823V98.4512C413.575 100.282 411.645 101.758 409.261 101.758Z" fill="#FFB44F"/>
<path d="M311.678 46.2242V36.4823C311.678 34.6515 313.608 33.1758 315.992 33.1758H409.261C411.645 33.1758 413.575 34.6626 413.575 36.4823V45.8026" fill="#3887FE"/>
<path d="M412.954 45.2478H311.678V46.3574H412.954V45.2478Z" fill="white"/>
<path d="M319.03 42.2076C317.844 42.2076 316.879 41.2423 316.879 40.0551C316.879 38.8678 317.844 37.9025 319.03 37.9025C320.217 37.9025 321.181 38.8678 321.181 40.0551C321.181 41.2423 320.217 42.2076 319.03 42.2076ZM319.03 39.001C318.454 39.001 317.988 39.467 317.988 40.044C317.988 40.6209 318.454 41.087 319.03 41.087C319.607 41.087 320.073 40.6209 320.073 40.044C320.073 39.467 319.607 39.001 319.03 39.001Z" fill="white"/>
<path d="M325.04 42.2076C323.854 42.2076 322.889 41.2423 322.889 40.0551C322.889 38.8678 323.854 37.9025 325.04 37.9025C326.227 37.9025 327.192 38.8678 327.192 40.0551C327.192 41.2423 326.227 42.2076 325.04 42.2076ZM325.04 39.001C324.464 39.001 323.998 39.467 323.998 40.044C323.998 40.6209 324.464 41.087 325.04 41.087C325.617 41.087 326.083 40.6209 326.083 40.044C326.083 39.467 325.617 39.001 325.04 39.001Z" fill="white"/>
<path d="M330.94 42.2076C329.753 42.2076 328.789 41.2423 328.789 40.0551C328.789 38.8678 329.753 37.9025 330.94 37.9025C332.126 37.9025 333.091 38.8678 333.091 40.0551C333.091 41.2423 332.126 42.2076 330.94 42.2076ZM330.94 39.001C330.363 39.001 329.897 39.467 329.897 40.044C329.897 40.6209 330.363 41.087 330.94 41.087C331.516 41.087 331.982 40.6209 331.982 40.044C331.982 39.467 331.516 39.001 330.94 39.001Z" fill="white"/>
<path d="M399.813 63.4779H358.962C358.651 63.4779 358.407 63.2338 358.407 62.9231C358.407 62.6124 358.651 62.3683 358.962 62.3683H399.813C400.124 62.3683 400.368 62.6124 400.368 62.9231C400.368 63.2338 400.124 63.4779 399.813 63.4779Z" fill="white"/>
<path d="M379.388 82.2738H358.962C358.651 82.2738 358.407 82.0297 358.407 81.7191C358.407 81.4084 358.651 81.1643 358.962 81.1643H379.388C379.698 81.1643 379.942 81.4084 379.942 81.7191C379.942 82.0297 379.698 82.2738 379.388 82.2738Z" fill="white"/>
<path d="M374.209 73.0201H358.962C358.651 73.0201 358.407 72.776 358.407 72.4653C358.407 72.1546 358.651 71.9105 358.962 71.9105H374.209C374.52 71.9105 374.763 72.1546 374.763 72.4653C374.763 72.776 374.52 73.0201 374.209 73.0201Z" fill="white"/>
<path d="M399.814 73.0201H384.566C384.256 73.0201 384.012 72.776 384.012 72.4653C384.012 72.1546 384.256 71.9105 384.566 71.9105H399.814C400.124 71.9105 400.368 72.1546 400.368 72.4653C400.368 72.776 400.124 73.0201 399.814 73.0201Z" fill="white"/>
<path d="M351.21 74.7288H324.042V56.0105H351.21V74.7288ZM325.151 73.6193H350.102V57.1201H325.151V73.6193Z" fill="white"/>
<path d="M244.047 102.623V88.7204C244.047 84.6705 248.36 81.3751 253.683 81.3751H462.289C467.612 81.3751 471.925 84.6594 471.925 88.7204V226.139C471.925 230.189 467.612 233.485 462.289 233.485H253.683C248.36 233.485 244.047 230.2 244.047 226.139V204.081" fill="white"/>
<path d="M471.925 109.802V88.8757C471.925 84.7703 467.59 81.4417 462.245 81.4417H252.718C247.373 81.4417 243.038 84.7703 243.038 88.8757V110.756L471.925 109.802Z" fill="#3887FE"/>
<path d="M259.549 101.036C257.254 101.036 255.391 99.1724 255.391 96.8867C255.391 94.601 257.254 92.737 259.549 92.737C261.844 92.737 263.696 94.601 263.696 96.8867C263.696 99.1724 261.833 101.036 259.549 101.036ZM259.549 93.8354C257.875 93.8354 256.5 95.2002 256.5 96.8756C256.5 98.5511 257.863 99.9158 259.549 99.9158C261.235 99.9158 262.587 98.5511 262.587 96.8756C262.587 95.2002 261.223 93.8354 259.549 93.8354Z" fill="white"/>
<path d="M273.055 101.036C270.76 101.036 268.897 99.1724 268.897 96.8867C268.897 94.601 270.76 92.737 273.055 92.737C275.351 92.737 277.203 94.601 277.203 96.8867C277.203 99.1724 275.34 101.036 273.055 101.036ZM273.055 93.8354C271.381 93.8354 270.006 95.2002 270.006 96.8756C270.006 98.5511 271.37 99.9158 273.055 99.9158C274.741 99.9158 276.094 98.5511 276.094 96.8756C276.094 95.2002 274.73 93.8354 273.055 93.8354Z" fill="white"/>
<path d="M286.296 101.036C284.011 101.036 282.148 99.1724 282.148 96.8867C282.148 94.601 284.011 92.737 286.296 92.737C288.58 92.737 290.454 94.601 290.454 96.8867C290.454 99.1724 288.591 101.036 286.296 101.036ZM286.296 93.8354C284.621 93.8354 283.257 95.2002 283.257 96.8756C283.257 98.5511 284.621 99.9158 286.296 99.9158C287.97 99.9158 289.345 98.5511 289.345 96.8756C289.345 95.2002 287.981 93.8354 286.296 93.8354Z" fill="white"/>
<path d="M437.128 149.08H359.139C358.829 149.08 358.585 148.836 358.585 148.526C358.585 148.215 358.829 147.971 359.139 147.971H437.128C437.439 147.971 437.683 148.215 437.683 148.526C437.683 148.836 437.439 149.08 437.128 149.08Z" fill="#243762"/>
<path d="M398.128 184.975H359.139C358.829 184.975 358.585 184.731 358.585 184.42C358.585 184.109 358.829 183.865 359.139 183.865H398.128C398.439 183.865 398.683 184.109 398.683 184.42C398.683 184.731 398.439 184.975 398.128 184.975Z" fill="#243762"/>
<path d="M388.248 167.31H359.128C358.818 167.31 358.574 167.066 358.574 166.756C358.574 166.445 358.818 166.201 359.128 166.201H388.248C388.558 166.201 388.802 166.445 388.802 166.756C388.802 167.066 388.558 167.31 388.248 167.31Z" fill="#243762"/>
<path d="M437.128 167.31H408.009C407.698 167.31 407.454 167.066 407.454 166.756C407.454 166.445 407.698 166.201 408.009 166.201H437.128C437.439 166.201 437.683 166.445 437.683 166.756C437.683 167.066 437.439 167.31 437.128 167.31Z" fill="#243762"/>
<path d="M306.444 216.342C291.895 216.342 279.01 209.285 270.981 198.411V196.98H342.916C334.987 208.664 321.614 216.331 306.444 216.331V216.342Z" fill="#FFB44F"/>
<path d="M270.982 198.411C265.581 191.088 262.388 182.045 262.388 172.259C262.388 147.915 282.115 128.176 306.444 128.176C330.773 128.176 350.501 147.915 350.501 172.259C350.501 181.424 347.706 189.934 342.916 196.991H270.982V198.423V198.411Z" fill="#53D0F7"/>
<path d="M347.041 166.634C346.387 165.413 345.467 164.381 344.413 163.46C340.976 160.442 336.141 158.523 334.477 154.273C333.302 151.255 334.089 147.86 333.657 144.653C333.147 140.77 330.84 137.275 327.857 134.723C320.96 128.831 310.714 126.401 301.865 128.276C297.817 129.131 293.991 130.95 290.898 133.702C289.268 135.155 287.848 136.831 286.673 138.673C286.185 139.438 282.958 144.642 283.568 145.341C283.568 145.341 283.945 145.763 284.621 146.406C284.344 147.116 284.133 147.849 284.034 148.614C283.745 150.845 284.289 153.208 283.468 155.305C282.315 158.256 278.955 159.588 276.56 161.696C275.828 162.34 275.196 163.05 274.73 163.904C273.765 165.691 273.765 167.865 274.297 169.818C274.974 172.27 276.504 174.512 278.644 175.865C282.492 178.295 288.691 178.584 293.127 178.573C293.936 178.573 294.779 178.517 295.455 178.073C296.398 177.441 296.719 176.198 296.753 175.055C296.852 172.137 295.843 169.241 294.513 166.689C294.468 166.6 294.413 166.5 294.324 166.445C294.18 166.356 293.98 166.423 293.825 166.478C292.306 167.033 297.695 155.893 297.462 152.753C298.671 152.908 299.946 152.975 301.277 152.875C306.577 155.449 311.157 154.273 314.318 152.587C314.417 156.614 315.815 160.897 319.74 162.628C320.206 160.354 322.69 158.767 324.974 159.133C325.251 159.177 325.517 159.244 325.773 159.333C327.68 159.998 329.121 161.885 329.321 163.915C329.399 164.703 329.288 165.48 329.044 166.223C328.578 167.677 327.58 168.975 326.283 169.774C324.309 170.994 321.769 171.138 319.585 170.34C319.352 170.251 319.075 170.162 318.864 170.284C318.742 170.362 318.664 170.495 318.598 170.628C316.691 174.301 315.227 178.462 315.371 182.656C315.426 184.298 315.881 186.084 317.245 186.994C318.21 187.638 319.43 187.704 320.594 187.715C320.627 187.715 320.649 187.715 320.683 187.715C327.048 187.726 335.908 187.294 341.419 183.821C344.513 181.868 346.709 178.65 347.673 175.122C348.438 172.315 348.427 169.175 347.052 166.611L347.041 166.634Z" fill="#243762"/>
<path d="M317.234 187.016C315.87 186.106 315.415 184.309 315.36 182.678C315.216 178.484 316.668 174.323 318.587 170.65C318.653 170.517 318.731 170.384 318.853 170.306C319.064 170.184 319.341 170.273 319.574 170.362C321.747 171.161 324.298 171.016 326.272 169.796C327.569 168.986 328.567 167.688 329.033 166.245C329.077 166.057 329.11 165.857 329.132 165.657C329.454 162.983 328.035 160.509 325.761 159.344C325.506 159.255 325.24 159.177 324.963 159.144C322.668 158.778 320.184 160.376 319.729 162.639C315.138 160.62 313.996 155.128 314.351 150.612C314.462 149.236 312.965 148.37 311.811 149.125C301.709 155.727 293.093 152.465 288.125 149.18L286.229 165.025L286.052 166.545C284.976 175.532 290.875 183.732 299.469 185.751L299.691 195.893C299.824 201.729 304.659 206.367 310.503 206.234C316.336 206.101 320.971 201.263 320.838 195.416L320.672 187.737C320.672 187.737 320.616 187.737 320.583 187.737C319.43 187.737 318.199 187.66 317.234 187.016Z" fill="#FFBA94"/>
<path opacity="0.46" d="M315.859 177.541C312.51 181.89 306.822 184.12 300.667 183.388C291.619 182.301 285.154 174.09 286.229 165.025L286.052 166.545C284.965 175.632 291.02 183.932 299.791 185.829L299.713 185.851L299.88 193.452L314.828 182.09C315.005 181.946 315.172 181.79 315.338 181.635C315.56 181.435 315.826 180.281 315.97 179.238C316.125 178.14 316.158 177.152 315.848 177.552L315.859 177.541Z" fill="#FB8E77"/>
<path d="M299.78 161.319C299.714 161.885 300.113 162.384 300.678 162.451C301.244 162.517 301.743 162.118 301.809 161.552C301.876 160.986 301.477 160.487 300.911 160.42C300.346 160.354 299.847 160.753 299.78 161.319Z" fill="#233863"/>
<path d="M289.656 159.865C289.589 160.431 289.988 160.931 290.554 160.997C291.119 161.064 291.618 160.664 291.685 160.098C291.752 159.532 291.352 159.033 290.787 158.967C290.221 158.9 289.722 159.299 289.656 159.865Z" fill="#233863"/>
<path d="M295.19 168.154C292.262 168.154 291.375 166.767 291.131 166.179C291.009 165.89 291.031 165.557 291.175 165.28L294.424 159.311C294.569 159.044 294.912 158.944 295.178 159.089C295.445 159.233 295.544 159.577 295.4 159.843L292.151 165.813C292.317 166.145 292.927 167.044 295.178 167.044H295.201C295.511 167.044 295.755 167.288 295.755 167.599C295.755 167.91 295.522 168.154 295.178 168.154H295.19Z" fill="#FB8E77"/>
<path d="M295.744 178.928C295.566 178.928 295.389 178.839 295.278 178.683C295.245 178.628 294.391 177.396 292.983 177.763C292.683 177.84 292.384 177.663 292.306 177.363C292.229 177.064 292.406 176.764 292.705 176.686C294.901 176.109 296.154 177.984 296.21 178.062C296.376 178.317 296.309 178.661 296.054 178.828C295.966 178.894 295.855 178.916 295.755 178.916L295.744 178.928Z" fill="#FB8E77"/>
<path d="M302.22 159.066C301.943 159.078 301.643 158.944 301.344 158.822C301.044 158.689 300.745 158.567 300.479 158.478C300.213 158.379 299.902 158.279 299.592 158.19C299.281 158.09 298.96 158.012 298.76 157.813C298.571 157.635 298.571 157.324 298.971 157.08C299.348 156.836 300.135 156.725 301.022 157.047C301.898 157.369 302.419 157.968 302.541 158.39C302.674 158.822 302.475 159.066 302.209 159.078L302.22 159.066Z" fill="#233863"/>
<path d="M287.383 156.814C287.649 156.892 287.971 156.814 288.292 156.77C288.614 156.714 288.935 156.659 289.213 156.625C289.49 156.592 289.822 156.559 290.144 156.537C290.466 156.503 290.798 156.503 291.031 156.359C291.264 156.226 291.319 155.926 290.987 155.605C290.676 155.294 289.922 154.994 289.002 155.116C288.07 155.238 287.438 155.704 287.216 156.082C286.984 156.47 287.128 156.759 287.394 156.825L287.383 156.814Z" fill="#233863"/>
<path d="M324.708 167.555C324.609 167.555 324.509 167.532 324.42 167.477L321.98 165.99L324.232 162.395C324.398 162.14 324.742 162.062 324.997 162.218C325.252 162.384 325.329 162.728 325.174 162.983L323.522 165.624L325.008 166.523C325.274 166.678 325.352 167.022 325.196 167.288C325.097 167.455 324.908 167.555 324.719 167.555H324.708Z" fill="#FB8E77"/>
<path d="M298.582 173.935L300.545 173.613C302.985 173.213 304.637 170.905 304.227 168.464L304.182 168.209L296.697 169.441L297.285 173.014C297.385 173.624 297.961 174.034 298.56 173.935H298.582Z" fill="white"/>
<path d="M306.145 157.036C304.97 155.937 303.439 155.361 301.832 155.416C300.224 155.471 298.738 156.148 297.64 157.324C296.964 158.046 296.509 158.922 296.265 159.854C296.232 159.854 296.198 159.832 296.154 159.832L294.003 159.666C294.003 159.477 294.047 159.299 294.036 159.111C293.925 155.793 291.131 153.186 287.804 153.297C286.196 153.352 284.71 154.029 283.612 155.205C282.515 156.381 281.938 157.913 281.993 159.521C282.093 162.484 284.322 164.869 287.15 165.28C287.494 165.335 287.859 165.347 288.214 165.335C289.822 165.28 291.308 164.603 292.406 163.427C293.038 162.75 293.482 161.929 293.737 161.064L296.032 161.241C296.032 161.374 295.999 161.507 296.01 161.652C296.11 164.614 298.339 167 301.166 167.41C301.51 167.466 301.876 167.477 302.231 167.466C305.546 167.355 308.152 164.559 308.041 161.23C307.986 159.621 307.31 158.134 306.134 157.036H306.145ZM291.375 162.462C290.532 163.36 289.39 163.882 288.159 163.926C285.619 164.015 283.479 162.018 283.391 159.477C283.346 158.245 283.79 157.069 284.633 156.17C285.475 155.272 286.617 154.75 287.848 154.706C290.388 154.617 292.528 156.614 292.617 159.155C292.661 160.387 292.217 161.563 291.375 162.462ZM302.198 166.057C299.658 166.145 297.518 164.148 297.429 161.607C297.385 160.376 297.828 159.2 298.671 158.301C299.514 157.402 300.656 156.881 301.887 156.836C302.164 156.836 302.441 156.836 302.708 156.881C303.628 157.014 304.493 157.424 305.192 158.079C306.09 158.922 306.611 160.065 306.655 161.297C306.744 163.838 304.748 165.979 302.209 166.068L302.198 166.057Z" fill="white"/>
<path d="M35.5514 145.053H128.821C131.205 145.053 133.134 143.566 133.134 141.746V79.7773C133.134 77.9466 131.205 76.4708 128.821 76.4708H35.5514C33.1673 76.4708 31.2378 77.9577 31.2378 79.7773V141.746C31.2378 143.577 33.1673 145.053 35.5514 145.053Z" fill="#FFB44F"/>
<path d="M133.123 89.5082V79.7662C133.123 77.9355 131.194 76.4597 128.81 76.4597H35.5514C33.1673 76.4597 31.2378 77.9466 31.2378 79.7662V89.0865" fill="#3887FE"/>
<path d="M133.135 88.5318H31.8589V89.6413H133.135V88.5318Z" fill="white"/>
<path d="M125.771 85.4916C124.585 85.4916 123.62 84.5262 123.62 83.339C123.62 82.1518 124.585 81.1865 125.771 81.1865C126.958 81.1865 127.923 82.1518 127.923 83.339C127.923 84.5262 126.958 85.4916 125.771 85.4916ZM125.771 82.2849C125.195 82.2849 124.729 82.7509 124.729 83.3279C124.729 83.9049 125.195 84.3709 125.771 84.3709C126.348 84.3709 126.814 83.9049 126.814 83.3279C126.814 82.7509 126.348 82.2849 125.771 82.2849Z" fill="white"/>
<path d="M119.761 85.4916C118.575 85.4916 117.61 84.5262 117.61 83.339C117.61 82.1518 118.575 81.1865 119.761 81.1865C120.948 81.1865 121.912 82.1518 121.912 83.339C121.912 84.5262 120.948 85.4916 119.761 85.4916ZM119.761 82.2849C119.185 82.2849 118.719 82.7509 118.719 83.3279C118.719 83.9049 119.185 84.3709 119.761 84.3709C120.338 84.3709 120.803 83.9049 120.803 83.3279C120.803 82.7509 120.338 82.2849 119.761 82.2849Z" fill="white"/>
<path d="M113.862 85.4916C112.675 85.4916 111.71 84.5262 111.71 83.339C111.71 82.1518 112.675 81.1865 113.862 81.1865C115.048 81.1865 116.013 82.1518 116.013 83.339C116.013 84.5262 115.048 85.4916 113.862 85.4916ZM113.862 82.2849C113.285 82.2849 112.819 82.7509 112.819 83.3279C112.819 83.9049 113.285 84.3709 113.862 84.3709C114.438 84.3709 114.904 83.9049 114.904 83.3279C114.904 82.7509 114.438 82.2849 113.862 82.2849Z" fill="white"/>
<path d="M85.8399 106.762H44.988C44.6776 106.762 44.4336 106.518 44.4336 106.207C44.4336 105.896 44.6776 105.652 44.988 105.652H85.8399C86.1504 105.652 86.3943 105.896 86.3943 106.207C86.3943 106.518 86.1504 106.762 85.8399 106.762Z" fill="white"/>
<path d="M85.8397 125.558H65.4138C65.1033 125.558 64.8594 125.314 64.8594 125.003C64.8594 124.692 65.1033 124.448 65.4138 124.448H85.8397C86.1502 124.448 86.3942 124.692 86.3942 125.003C86.3942 125.314 86.1502 125.558 85.8397 125.558Z" fill="white"/>
<path d="M85.8399 116.304H70.5925C70.282 116.304 70.0381 116.06 70.0381 115.749C70.0381 115.439 70.282 115.194 70.5925 115.194H85.8399C86.1504 115.194 86.3943 115.439 86.3943 115.749C86.3943 116.06 86.1504 116.304 85.8399 116.304Z" fill="white"/>
<path d="M60.2466 116.304H44.9993C44.6888 116.304 44.4448 116.06 44.4448 115.749C44.4448 115.439 44.6888 115.194 44.9993 115.194H60.2466C60.5571 115.194 60.8011 115.439 60.8011 115.749C60.8011 116.06 60.5571 116.304 60.2466 116.304Z" fill="white"/>
<path d="M120.759 131.727H93.5913V99.3056H120.759V131.727ZM94.7002 130.617H119.65V100.415H94.7002V130.617Z" fill="white"/>
<path d="M198.56 31.4893H82.0809C79.031 31.4893 76.5586 33.9632 76.5586 37.0149V206.611C76.5586 209.663 79.031 212.137 82.0809 212.137H198.56C201.609 212.137 204.082 209.663 204.082 206.611V37.0149C204.082 33.9632 201.609 31.4893 198.56 31.4893Z" fill="#53D0F7"/>
<path d="M201.243 27.739H79.3974C77.8296 27.739 76.5586 29.0107 76.5586 30.5795V37.0482C76.5586 38.6169 77.8296 39.8887 79.3974 39.8887H201.243C202.811 39.8887 204.082 38.6169 204.082 37.0482V30.5795C204.082 29.0107 202.811 27.739 201.243 27.739Z" fill="#233863"/>
<path d="M140.686 152.243H94.4783C93.5579 152.243 92.8149 151.499 92.8149 150.578C92.8149 149.657 93.5579 148.914 94.4783 148.914H140.686C141.606 148.914 142.349 149.657 142.349 150.578C142.349 151.499 141.606 152.243 140.686 152.243Z" fill="white"/>
<path d="M181.527 170.65H94.4893C93.8794 170.65 93.3804 170.151 93.3804 169.541C93.3804 168.93 93.8794 168.431 94.4893 168.431H181.527C182.137 168.431 182.636 168.93 182.636 169.541C182.636 170.151 182.137 170.65 181.527 170.65Z" fill="white"/>
<path d="M181.527 186.45H94.4893C93.8794 186.45 93.3804 185.951 93.3804 185.341C93.3804 184.731 93.8794 184.231 94.4893 184.231H181.527C182.137 184.231 182.636 184.731 182.636 185.341C182.636 185.951 182.137 186.45 181.527 186.45Z" fill="white"/>
<path d="M177.213 117.735C182.614 110.412 185.807 101.369 185.807 91.583C185.807 67.2393 166.08 47.5002 141.751 47.5002C117.422 47.5002 97.6943 67.2393 97.6943 91.583C97.6943 100.748 100.489 109.258 105.279 116.315H177.213V117.746V117.735Z" fill="white"/>
<path d="M141.751 135.666C156.3 135.666 169.185 128.609 177.214 117.735V116.304H105.279C113.208 127.988 126.581 135.655 141.751 135.655V135.666Z" fill="#3887FE"/>
<path d="M159.427 55.5557C156.676 52.1604 151.587 48.5099 142.272 47.8886C135.585 47.4448 128.466 48.6653 123.487 53.4697C120.105 56.7207 118.076 61.2366 117.244 65.808C116.179 71.6443 117.798 77.1477 119.196 82.751L130.318 95.5775L132.558 84.1712C132.636 84.038 132.658 83.8494 132.658 83.6497L136.173 65.7636C136.75 65.3753 137.371 65.0535 138.025 64.8094C140.864 63.7664 144.357 64.066 147.295 64.3434C147.34 64.3434 147.362 64.3434 147.395 64.3434C150.245 64.6873 153.793 64.1104 156.743 63.4002C157.874 63.1228 158.794 62.5015 159.438 61.6804C160.79 59.9717 160.957 57.4308 159.415 55.5224L159.427 55.5557Z" fill="#142647"/>
<path d="M162.986 90.9173L162.931 90.4957L160.192 67.5611L159.737 63.7997L159.604 62.6901C159.56 62.3573 159.504 62.0355 159.438 61.7137C158.795 62.5348 157.874 63.1561 156.743 63.4335C153.793 64.1436 150.245 64.7206 147.395 64.3767C147.362 64.3767 147.34 64.3767 147.295 64.3767C144.357 64.0882 140.864 63.7997 138.025 64.8427C135.33 65.8302 133.113 68.1935 132.458 71.0118C131.859 73.5749 132.347 76.3155 132.436 78.9008C132.48 80.0991 132.558 81.2863 132.591 82.4847C132.602 82.9063 132.78 83.794 132.558 84.1823C130.263 88.21 133.168 80.2766 125.006 77.9688L124.519 78.0242C121.092 78.4348 118.641 81.5526 119.052 84.9812C119.462 88.4097 122.578 90.8618 126.004 90.4513L127.479 90.2738L127.856 93.4582C127.834 93.6912 127.812 93.9242 127.801 94.1572L127.346 114.34C127.213 120.398 132.015 125.425 138.069 125.558L141.64 125.635C147.695 125.769 152.718 120.964 152.851 114.906L153.051 105.785C159.46 103.966 163.785 97.73 162.975 90.9062L162.986 90.9173Z" fill="#A55356"/>
<path opacity="0.46" d="M162.986 90.9173L162.931 90.4957C163.763 97.4415 158.806 103.755 151.853 104.587L144.224 105.497C137.282 106.329 130.972 101.369 130.141 94.4124C130.141 94.4124 129.753 92.2821 129.176 89.2086C128.954 87.9992 127.468 90.2627 127.468 90.2627L128.045 95.0893C128.932 102.49 135.519 107.805 142.893 107.183L152.618 112.853L152.773 105.874C159.338 104.165 163.807 97.8299 162.975 90.9062L162.986 90.9173ZM150.933 106.251C151.298 106.207 151.642 106.14 151.997 106.074C151.642 106.152 151.287 106.218 150.933 106.251Z" fill="#833742"/>
<path opacity="0.46" d="M159.737 63.7997L160.192 67.5611L159.737 63.7997Z" fill="#833742"/>
<path d="M147.295 81.6081C147.362 82.174 146.963 82.6733 146.397 82.7399C145.832 82.8064 145.333 82.407 145.266 81.8411C145.199 81.2753 145.599 80.776 146.164 80.7094C146.73 80.6428 147.229 81.0423 147.295 81.6081Z" fill="#142647"/>
<path d="M157.353 80.1546C157.419 80.7205 157.02 81.2198 156.455 81.2864C155.889 81.3529 155.39 80.9535 155.324 80.3876C155.257 79.8217 155.656 79.3224 156.222 79.2559C156.787 79.1893 157.286 79.5887 157.353 80.1546Z" fill="#142647"/>
<path d="M148.171 92.3265C146.608 92.3265 145.366 91.9936 144.445 91.3279C143.248 90.4624 143.092 89.3418 143.081 89.2863C143.037 88.9867 143.259 88.6982 143.558 88.6649C143.835 88.6205 144.135 88.8314 144.179 89.1309C144.179 89.1753 144.312 89.8743 145.122 90.4402C145.909 90.995 147.528 91.5387 150.711 90.9395C151.01 90.884 151.298 91.0838 151.354 91.3833C151.409 91.6829 151.21 91.9714 150.91 92.0269C149.901 92.2155 148.981 92.3154 148.149 92.3154L148.171 92.3265Z" fill="#833742"/>
<path d="M151.221 88.8313C151.143 88.8313 151.065 88.8313 150.988 88.8313C150.677 88.8313 150.444 88.5651 150.444 88.2655C150.444 87.9548 150.722 87.744 151.01 87.7218C151.642 87.7329 152.207 87.6885 152.718 87.5664C153.427 87.4 154.026 86.9229 154.348 86.2572C154.68 85.5692 154.68 84.7704 154.348 84.0824L150.666 76.3821C150.533 76.1047 150.655 75.7718 150.932 75.6387C151.209 75.5055 151.542 75.6276 151.675 75.905L155.357 83.6053C155.834 84.6039 155.834 85.7468 155.357 86.7343C154.891 87.7107 154.026 88.3986 152.984 88.6427C152.451 88.7648 151.864 88.8313 151.232 88.8313H151.221Z" fill="#833742"/>
<path d="M152.086 100.127C151.942 100.127 151.786 100.071 151.675 99.9491C150.677 98.8729 149.302 99.4609 149.247 99.4831C148.97 99.6052 148.637 99.4831 148.515 99.1946C148.393 98.9173 148.515 98.5844 148.792 98.4623C148.881 98.4179 150.943 97.5303 152.485 99.1835C152.696 99.4055 152.684 99.7605 152.452 99.9713C152.341 100.071 152.208 100.116 152.075 100.116L152.086 100.127Z" fill="#833742"/>
<path d="M140.021 78.6567C140.52 78.69 141.052 78.4348 141.585 78.2129C142.117 77.9798 142.66 77.769 143.137 77.5915C143.614 77.414 144.168 77.2364 144.723 77.07C145.266 76.8925 145.854 76.7482 146.209 76.4043C146.552 76.0825 146.541 75.5277 145.832 75.095C145.155 74.6623 143.736 74.4515 142.161 75.0284C140.586 75.6054 139.655 76.6817 139.433 77.4362C139.189 78.2129 139.555 78.6456 140.032 78.6678L140.021 78.6567Z" fill="#142647"/>
<path d="M159.593 75.3169C159.238 75.4168 158.806 75.3169 158.373 75.2503C157.952 75.1727 157.52 75.095 157.143 75.0506C156.766 75.0062 156.333 74.9619 155.901 74.9286C155.468 74.8953 155.025 74.8731 154.714 74.6845C154.404 74.5069 154.326 74.0964 154.77 73.6637C155.191 73.242 156.189 72.8537 157.442 73.009C158.684 73.1644 159.549 73.7968 159.826 74.3072C160.137 74.8398 159.937 75.206 159.593 75.3058V75.3169Z" fill="#142647"/>
<path d="M123.476 86.8896C123.288 86.8896 123.11 86.7898 122.999 86.6233C122.844 86.357 122.922 86.0242 123.188 85.8577L124.674 84.959L123.021 82.3182C122.855 82.063 122.933 81.7191 123.199 81.5526C123.465 81.3862 123.798 81.4639 123.964 81.7302L126.215 85.3251L123.776 86.8119C123.687 86.8674 123.587 86.8896 123.487 86.8896H123.476Z" fill="#833742"/>
<path d="M198.105 36.1716C197.961 36.1716 197.817 36.1162 197.717 36.0052L194.024 32.3104C193.802 32.0885 193.802 31.7445 194.024 31.5226C194.246 31.3007 194.59 31.3007 194.812 31.5226L198.504 35.2174C198.726 35.4393 198.726 35.7833 198.504 36.0052C198.393 36.1162 198.249 36.1716 198.116 36.1716H198.105Z" fill="white"/>
<path d="M194.412 36.1716C194.268 36.1716 194.124 36.1162 194.024 36.0052C193.802 35.7833 193.802 35.4393 194.024 35.2174L197.717 31.5226C197.939 31.3007 198.282 31.3007 198.504 31.5226C198.726 31.7445 198.726 32.0885 198.504 32.3104L194.812 36.0052C194.701 36.1162 194.557 36.1716 194.423 36.1716H194.412Z" fill="white"/>
<path d="M123.055 176.398H31.8477V231.01H123.055V176.398Z" fill="#FFB44F"/>
<path d="M68.7184 220.148H41.9053C41.2954 220.148 40.7964 219.648 40.7964 219.038C40.7964 218.428 41.2954 217.929 41.9053 217.929H68.7184C69.3283 217.929 69.8273 218.428 69.8273 219.038C69.8273 219.648 69.3283 220.148 68.7184 220.148Z" fill="#243762"/>
<path d="M68.7184 189.724H41.9053C41.2954 189.724 40.7964 189.224 40.7964 188.614C40.7964 188.004 41.2954 187.504 41.9053 187.504H68.7184C69.3283 187.504 69.8273 188.004 69.8273 188.614C69.8273 189.224 69.3283 189.724 68.7184 189.724Z" fill="white"/>
<path d="M68.7184 198.822H41.9053C41.2954 198.822 40.7964 198.323 40.7964 197.712C40.7964 197.102 41.2954 196.603 41.9053 196.603H68.7184C69.3283 196.603 69.8273 197.102 69.8273 197.712C69.8273 198.323 69.3283 198.822 68.7184 198.822Z" fill="#243762"/>
<path d="M81.4043 209.363H41.9053C41.2954 209.363 40.7964 208.864 40.7964 208.253C40.7964 207.643 41.2954 207.144 41.9053 207.144H81.4043C82.0141 207.144 82.5131 207.643 82.5131 208.253C82.5131 208.864 82.0141 209.363 81.4043 209.363Z" fill="#243762"/>
<path d="M92.5486 188.614H112.875C113.474 188.614 113.961 189.102 113.961 189.701V220.813C113.961 221.413 113.474 221.901 112.875 221.901H92.5486C91.9498 221.901 91.4619 221.413 91.4619 220.813V189.701C91.4619 189.102 91.9498 188.614 92.5486 188.614Z" fill="#2F7DED"/>
<path d="M405.536 336.23H493.194C496.244 336.23 498.716 333.756 498.716 330.704V199.599C498.716 196.547 496.244 194.073 493.194 194.073H405.536C402.486 194.073 400.013 196.547 400.013 199.599V330.704C400.013 333.756 402.486 336.23 405.536 336.23Z" fill="#2F7DED"/>
<path d="M412.965 267.393H361.712V298.594H412.965V267.393Z" fill="#FFB44F"/>
<path d="M407.321 274.794H392.251C391.941 274.794 391.697 274.549 391.697 274.239C391.697 273.928 391.941 273.684 392.251 273.684H407.321C407.632 273.684 407.876 273.928 407.876 274.239C407.876 274.549 407.632 274.794 407.321 274.794Z" fill="#243762"/>
<path d="M407.321 292.169H392.251C391.941 292.169 391.697 291.925 391.697 291.614C391.697 291.304 391.941 291.06 392.251 291.06H407.321C407.632 291.06 407.876 291.304 407.876 291.614C407.876 291.925 407.632 292.169 407.321 292.169Z" fill="white"/>
<path d="M407.321 286.965H392.251C391.941 286.965 391.697 286.721 391.697 286.411C391.697 286.1 391.941 285.856 392.251 285.856H407.321C407.632 285.856 407.876 286.1 407.876 286.411C407.876 286.721 407.632 286.965 407.321 286.965Z" fill="#243762"/>
<path d="M407.321 280.952H385.121C384.81 280.952 384.566 280.708 384.566 280.397C384.566 280.086 384.81 279.842 385.121 279.842H407.321C407.632 279.842 407.875 280.086 407.875 280.397C407.875 280.708 407.632 280.952 407.321 280.952Z" fill="#243762"/>
<path d="M367.911 291.614H378.379C378.979 291.614 379.465 291.128 379.465 290.527V273.673C379.465 273.072 378.979 272.586 378.379 272.586H367.911C367.31 272.586 366.824 273.072 366.824 273.673V290.527C366.824 291.128 367.31 291.614 367.911 291.614Z" fill="#53D0F7"/>
<path d="M402.852 200.675H495.878C497.445 200.675 498.716 199.403 498.716 197.834V193.951C498.716 192.382 497.445 191.111 495.878 191.111H402.852C401.284 191.111 400.013 192.382 400.013 193.951V197.834C400.013 199.403 401.284 200.675 402.852 200.675Z" fill="#233863"/>
<path d="M484.844 303.82H417.479C416.869 303.82 416.37 303.32 416.37 302.71C416.37 302.1 416.869 301.601 417.479 301.601H484.844C485.454 301.601 485.953 302.1 485.953 302.71C485.953 303.32 485.454 303.82 484.844 303.82Z" fill="white"/>
<path d="M484.844 316.258H417.479C416.869 316.258 416.37 315.758 416.37 315.148C416.37 314.538 416.869 314.039 417.479 314.039H484.844C485.454 314.039 485.953 314.538 485.953 315.148C485.953 315.758 485.454 316.258 484.844 316.258Z" fill="white"/>
<path d="M420.816 261.945C416.635 256.186 414.163 249.074 414.163 241.363C414.163 222.2 429.432 206.667 448.261 206.667C467.09 206.667 482.36 222.2 482.36 241.363C482.36 248.575 480.198 255.276 476.494 260.824H420.816V261.945Z" fill="white"/>
<path d="M448.261 276.058C437.006 276.058 427.026 270.511 420.816 261.945V260.824H476.494C470.362 270.011 460.004 276.058 448.261 276.058Z" fill="#53D0F7"/>
<path d="M445.057 218.994C445.134 218.938 445.212 218.872 445.289 218.816C445.212 218.761 445.168 218.727 445.168 218.727C445.145 218.827 445.101 218.905 445.068 218.994H445.057Z" fill="#FFCCB3"/>
<path d="M472.014 238.899C472.158 238.167 472.236 237.401 472.236 236.625C472.236 233.163 470.727 230.078 468.343 227.981C468.232 222.522 466.214 205.357 445.356 206.766C436.984 207.332 432.415 210.661 429.953 213.768C428.279 215.865 428.844 218.827 430.84 220.259C430.197 221.268 429.82 222.478 429.82 223.765C429.82 225.207 430.286 226.528 431.062 227.604C428.944 229.89 427.758 233.052 428.068 236.425C428.101 236.836 428.168 237.235 428.246 237.623C424.165 240.519 421.681 245.49 422.169 250.883C422.89 258.882 429.853 264.774 437.716 264.042C443.216 263.532 447.696 259.903 449.647 255.043C451.51 260.935 456.933 265.207 463.342 265.207C471.293 265.207 477.725 258.649 477.725 250.572C477.725 245.801 475.474 241.584 472.003 238.91L472.014 238.899ZM450.013 245.08C449.636 243.892 449.115 242.772 448.472 241.74C449.115 240.774 449.603 239.72 449.925 238.589C450.168 239.998 450.656 241.307 451.355 242.494C450.823 243.304 450.379 244.17 450.013 245.08ZM445.167 218.739C445.167 218.739 445.212 218.772 445.289 218.827C445.212 218.894 445.145 218.949 445.056 219.005C445.09 218.916 445.134 218.838 445.156 218.739H445.167ZM444.613 219.893C445.3 219.826 446.021 219.77 446.753 219.748C448.616 220.891 451.843 222.733 455.014 223.909C455.203 224.309 455.358 224.73 455.469 225.174C455.569 225.629 455.635 226.084 455.669 226.55C453.052 227.981 451.078 230.444 450.224 233.396C449.481 229.113 446.431 225.74 442.517 224.508C442.55 224.264 442.561 224.009 442.561 223.754C442.561 222.966 442.417 222.212 442.162 221.512C443.205 221.202 444.07 220.691 444.624 219.881L444.613 219.893Z" fill="#FFB44F"/>
<path d="M455.369 235.537C455.192 235.227 455.336 234.528 455.347 234.195C455.369 233.252 455.436 232.308 455.469 231.376C455.536 229.335 455.924 227.182 455.447 225.163C455.347 224.719 455.181 224.309 454.992 223.898C451.832 222.733 448.594 220.88 446.731 219.737C445.999 219.759 445.289 219.815 444.591 219.881C442.839 222.378 438.181 222.134 434.112 221.324C434.112 221.346 434.112 221.357 434.112 221.379L433.979 222.467L433.635 225.352L432.16 237.867C431.306 245.146 436.174 251.77 443.16 253.102L443.316 260.225C443.415 264.674 447.097 268.192 451.544 268.092C455.979 267.992 459.506 264.308 459.406 259.87L459.029 242.816C459.029 242.683 458.995 242.561 458.984 242.428C459.073 242.017 459.151 241.596 459.195 241.163L459.295 240.342L460.437 240.486C463.087 240.808 465.494 238.877 465.815 236.181C466.137 233.485 464.241 231.032 461.59 230.711L461.258 230.666C454.904 232.464 457.144 238.722 455.358 235.548L455.369 235.537Z" fill="#FFCCB3"/>
<path opacity="0.46" d="M457.565 240.841C456.744 247.831 450.512 252.824 443.637 251.981L443.149 251.926C436.274 251.093 431.372 244.747 432.193 237.756L433.989 222.478L432.182 237.878C431.317 245.224 436.274 251.892 443.36 253.146L443.471 258.039L452.386 251.57C453.218 251.093 453.994 250.527 454.704 249.884L455.724 248.863C457.587 246.799 458.862 244.159 459.217 241.163L457.576 240.841H457.565Z" fill="#FC7D68"/>
<path d="M443.969 233.518C443.914 233.962 444.224 234.361 444.657 234.417C445.089 234.472 445.488 234.15 445.533 233.718C445.588 233.274 445.278 232.874 444.845 232.819C444.413 232.763 444.014 233.085 443.969 233.518Z" fill="#233863"/>
<path d="M436.185 232.364C436.13 232.808 436.44 233.207 436.873 233.263C437.305 233.318 437.704 232.996 437.749 232.564C437.793 232.131 437.494 231.72 437.061 231.665C436.629 231.609 436.229 231.931 436.185 232.364Z" fill="#233863"/>
<path d="M443.293 241.928C442.65 241.928 441.94 241.851 441.164 241.706C440.942 241.662 440.787 241.44 440.831 241.218C440.876 240.996 441.097 240.841 441.319 240.885C443.792 241.363 445.045 240.93 445.666 240.486C446.309 240.02 446.398 239.454 446.398 239.443C446.431 239.221 446.631 239.055 446.864 239.088C447.097 239.121 447.252 239.321 447.219 239.554C447.219 239.587 447.085 240.475 446.154 241.163C445.444 241.673 444.491 241.928 443.293 241.928Z" fill="#FC7D68"/>
<path d="M441.486 238.899C441.064 238.899 440.665 238.855 440.321 238.777C439.623 238.611 439.046 238.145 438.736 237.49C438.403 236.813 438.403 236.026 438.725 235.338L441.153 230.178C441.253 229.967 441.497 229.879 441.708 229.978C441.918 230.078 442.007 230.322 441.907 230.533L439.479 235.693C439.268 236.148 439.268 236.669 439.479 237.124C439.689 237.546 440.066 237.856 440.51 237.967C440.832 238.045 441.209 238.078 441.619 238.067C441.885 238.067 442.04 238.245 442.04 238.478C442.04 238.711 441.863 238.899 441.63 238.899C441.575 238.899 441.53 238.899 441.475 238.899H441.486Z" fill="#FC7D68"/>
<path d="M440.255 248.064C440.155 248.064 440.055 248.031 439.978 247.953C439.811 247.798 439.8 247.532 439.956 247.365C440.909 246.322 442.24 246.533 442.805 246.799C443.016 246.899 443.105 247.143 443.016 247.354C442.916 247.565 442.683 247.654 442.462 247.565C442.417 247.543 441.342 247.088 440.565 247.931C440.488 248.02 440.366 248.064 440.255 248.064Z" fill="#FC7D68"/>
<path d="M449.459 231.11C449.082 231.132 448.671 230.933 448.272 230.766C447.873 230.589 447.463 230.422 447.097 230.289C446.731 230.156 446.309 230.012 445.888 229.89C445.467 229.757 445.034 229.634 444.757 229.379C444.491 229.135 444.502 228.702 445.045 228.37C445.555 228.037 446.642 227.87 447.84 228.314C449.037 228.758 449.747 229.59 449.913 230.167C450.102 230.766 449.825 231.099 449.459 231.121V231.11Z" fill="#E2963B"/>
<path d="M434.599 228.525C434.865 228.603 435.198 228.525 435.52 228.469C435.841 228.403 436.174 228.358 436.451 228.314C436.74 228.281 437.072 228.248 437.394 228.225C437.715 228.192 438.059 228.181 438.303 228.037C438.536 227.904 438.602 227.582 438.259 227.249C437.937 226.927 437.183 226.616 436.229 226.739C435.287 226.861 434.633 227.349 434.411 227.737C434.178 228.148 434.322 228.436 434.588 228.503L434.599 228.525Z" fill="#E2963B"/>
<path d="M462.399 237.79C462.299 237.79 462.2 237.768 462.111 237.701L460.126 236.469L461.922 233.551C462.089 233.285 462.421 233.207 462.688 233.374C462.943 233.54 463.031 233.873 462.865 234.139L461.645 236.114L462.699 236.769C462.954 236.935 463.042 237.268 462.876 237.535C462.776 237.701 462.588 237.801 462.41 237.801L462.399 237.79Z" fill="#FC7D68"/>
<path d="M404.648 197.879C404.504 197.879 404.371 197.823 404.26 197.724C404.038 197.513 404.038 197.158 404.26 196.936L407.121 194.029C407.332 193.807 407.687 193.807 407.908 194.029C408.13 194.24 408.13 194.595 407.908 194.816L405.047 197.724C404.937 197.834 404.792 197.89 404.648 197.89V197.879Z" fill="white"/>
<path d="M407.498 197.879C407.354 197.879 407.21 197.823 407.099 197.712L404.238 194.805C404.027 194.583 404.027 194.24 404.238 194.018C404.46 193.807 404.804 193.807 405.025 194.018L407.886 196.925C408.097 197.147 408.097 197.491 407.886 197.712C407.775 197.823 407.642 197.868 407.498 197.868V197.879Z" fill="white"/>
<path d="M267.511 281.85V280.463C267.511 254.311 246.32 233.107 220.183 233.107H196.419C195.92 233.085 195.421 233.074 194.922 233.074H142.294C130.872 233.074 121.125 240.253 117.299 250.35L117.222 250.561C117.211 250.594 117.2 250.638 117.177 250.672L94.7998 311.72L95.7756 311.842L115.403 314.25L115.17 383.908H235.053L236.284 322.327L236.816 295.764L267.522 281.873L267.511 281.85Z" fill="#2F7DED"/>
<path d="M183.146 258.35C170.626 258.35 160.447 248.164 160.447 235.637V233.074C160.447 232.763 160.691 232.519 161.001 232.519C161.312 232.519 161.556 232.763 161.556 233.074V235.637C161.556 247.543 171.236 257.24 183.146 257.24C195.056 257.24 204.736 247.554 204.736 235.637V233.074C204.736 232.763 204.98 232.519 205.291 232.519C205.601 232.519 205.845 232.763 205.845 233.074V235.637C205.845 248.164 195.665 258.35 183.146 258.35Z" fill="#374081"/>
<path d="M167.998 245.989C167.821 245.989 167.643 245.901 167.543 245.745C165.436 242.627 164.316 238.977 164.316 235.193V233.074C164.316 232.763 164.56 232.519 164.871 232.519C165.181 232.519 165.425 232.763 165.425 233.074V235.193C165.425 238.755 166.479 242.184 168.464 245.124C168.641 245.379 168.563 245.723 168.32 245.89C168.22 245.956 168.12 245.989 168.009 245.989H167.998Z" fill="#374081"/>
<path d="M183.146 254.034C178.832 254.034 174.774 252.613 171.403 249.928C171.159 249.74 171.125 249.385 171.314 249.152C171.502 248.908 171.857 248.874 172.09 249.063C175.25 251.593 179.076 252.924 183.135 252.924C187.193 252.924 191.008 251.593 194.168 249.074C194.401 248.885 194.756 248.919 194.945 249.163C195.133 249.407 195.1 249.751 194.856 249.939C191.496 252.625 187.437 254.034 183.124 254.034H183.146Z" fill="#374081"/>
<path d="M199.059 244.769C198.97 244.769 198.87 244.747 198.781 244.691C198.515 244.536 198.426 244.203 198.571 243.937C200.079 241.285 200.877 238.256 200.877 235.193V233.074C200.877 232.763 201.121 232.519 201.432 232.519C201.742 232.519 201.986 232.763 201.986 233.074V235.193C201.986 238.455 201.143 241.673 199.535 244.491C199.436 244.669 199.247 244.769 199.059 244.769Z" fill="#374081"/>
<path d="M236.273 322.86C235.963 322.86 235.719 322.616 235.719 322.305V279.132C235.719 278.821 235.963 278.577 236.273 278.577C236.584 278.577 236.828 278.821 236.828 279.132V322.305C236.828 322.616 236.584 322.86 236.273 322.86Z" fill="#374081"/>
<path d="M147.927 317.667L134.654 317.157C134.343 317.145 134.11 316.89 134.121 316.58C134.133 316.269 134.365 316.047 134.698 316.047L147.107 316.535L155.812 286.4C155.9 286.1 156.211 285.934 156.499 286.022C156.798 286.111 156.965 286.411 156.876 286.71L147.927 317.689V317.667Z" fill="#374081"/>
<path d="M225.095 394.448L210.813 372.978C207.563 368.818 205.701 363.769 201.919 362.737L198.781 361.883H198.77L135.563 346.183L141.983 317.667L104.148 312.863L90.8962 357.012C90.1755 360.152 90.1755 363.292 90.7743 366.266C92.3711 376.363 101.02 384.429 111.888 384.618L179.187 384.451C186.173 391.774 201.165 402.715 204.115 403.802C204.381 403.902 208.118 406.842 208.118 406.842C209.105 407.697 210.602 407.597 211.456 406.609L211.6 406.443C212.165 405.788 212.298 404.912 212.054 404.146C212.132 404.135 212.188 404.124 212.188 404.124C212.254 404.146 212.321 404.157 212.387 404.168L213.374 405.134C214.428 406.154 216.124 406.132 217.144 405.078L217.322 404.901C217.765 404.435 218.009 403.846 218.054 403.247L218.098 403.292C219.118 404.346 220.826 404.357 221.868 403.336L222.046 403.159C223.099 402.138 223.11 400.429 222.09 399.386L221.768 399.064C221.735 398.975 221.702 398.887 221.669 398.809C222.678 399.397 223.997 399.275 224.862 398.421L225.04 398.243C226.093 397.222 226.104 395.514 225.084 394.471L225.095 394.448Z" fill="#FFBA94"/>
<path d="M221.868 399.342C221.724 399.342 221.58 399.286 221.469 399.175L213.008 390.51C212.797 390.288 212.797 389.944 213.008 389.722C213.23 389.511 213.585 389.511 213.795 389.722L222.256 398.387C222.467 398.609 222.467 398.953 222.256 399.175C222.145 399.275 222.012 399.331 221.868 399.331V399.342Z" fill="#FB8E77"/>
<path d="M217.377 402.737C217.233 402.737 217.089 402.681 216.978 402.57L208.517 393.905C208.306 393.683 208.306 393.339 208.517 393.117C208.739 392.906 209.082 392.906 209.304 393.117L217.765 401.783C217.976 402.005 217.976 402.349 217.765 402.57C217.654 402.67 217.521 402.726 217.377 402.726V402.737Z" fill="#FB8E77"/>
<path d="M212.032 404.512C211.899 404.512 211.755 404.457 211.644 404.357L202.917 395.957C202.695 395.747 202.684 395.392 202.906 395.17C203.117 394.948 203.472 394.948 203.693 395.159L212.42 403.558C212.642 403.769 212.653 404.124 212.431 404.346C212.321 404.457 212.176 404.512 212.032 404.512Z" fill="#FB8E77"/>
<path d="M141.24 348.147C141.24 348.147 141.163 348.147 141.118 348.135L117.621 342.732C117.321 342.665 117.133 342.366 117.21 342.066C117.277 341.767 117.565 341.578 117.876 341.645L141.373 347.048C141.673 347.115 141.861 347.414 141.795 347.714C141.739 347.969 141.506 348.147 141.251 348.147H141.24Z" fill="#FB8E77"/>
<path d="M297.617 203.238C297.617 203.238 293.038 201.962 292.328 204.547C288.036 220.203 285.941 222.788 285.941 222.788C286.284 222.223 285.697 219.937 285.597 219.26C285.419 218.028 285.142 216.808 284.632 215.665C283.767 213.712 281.838 212.348 279.631 212.902C279.254 213.002 278.855 213.169 278.666 213.513C278.489 213.823 278.522 214.189 278.555 214.544C278.833 217.574 279.42 220.58 279.709 223.61C279.42 224.342 279.21 225.085 279.065 225.851C278.245 227.504 277.136 230.6 277.979 234.206C278.023 234.394 278.056 234.572 278.101 234.75C278.389 236.236 278.955 237.623 279.72 238.877L279.831 240.164L268.365 281.75C268.365 281.75 267.522 281.839 267.522 281.85L236.816 295.742L236.284 322.305C239.101 323.725 241.696 325.279 244.69 326.266C248.626 327.564 252.696 328.396 256.821 328.829C265.127 329.706 273.554 328.962 281.694 327.154C284.677 326.488 287.659 325.678 290.343 324.202C301.255 318.211 300.911 302.888 301.288 292.158C301.499 286.155 301.709 280.164 301.92 274.161C302.286 263.687 302.652 253.213 303.018 242.738C303.04 241.973 303.073 241.218 303.095 240.453C303.095 240.453 303.373 224.431 303.295 224.564C305.125 215.643 306.056 203.515 297.628 203.238H297.617Z" fill="#FFBA94"/>
<path d="M261.966 304.252C261.966 304.252 261.877 304.252 261.833 304.23C261.534 304.152 261.356 303.853 261.434 303.553L266.978 281.717C267.056 281.418 267.355 281.24 267.655 281.318C267.954 281.395 268.131 281.695 268.054 281.995L262.509 303.831C262.443 304.086 262.221 304.252 261.977 304.252H261.966Z" fill="#FB8E77"/>
<path d="M296.187 214.178C297.473 209.429 297.251 203.382 297.24 203.049C297.24 202.794 297.007 202.583 296.752 202.594C296.497 202.594 296.287 202.816 296.298 203.083C296.298 203.183 296.686 213.712 293.625 217.607C293.47 217.807 293.503 218.106 293.703 218.273C293.903 218.439 294.202 218.395 294.368 218.195C295.178 217.163 295.766 215.743 296.187 214.178Z" fill="#FB8E77"/>
<path d="M299.913 214.09C301.798 207.122 300.223 203.649 300.146 203.471C300.035 203.238 299.758 203.138 299.514 203.249C299.281 203.36 299.181 203.637 299.292 203.871C299.292 203.871 301.487 208.83 297.307 218.683C297.207 218.916 297.307 219.205 297.551 219.304C297.795 219.404 298.072 219.304 298.172 219.06C298.948 217.252 299.503 215.599 299.913 214.101V214.09Z" fill="#FB8E77"/>
<path d="M302.785 216.464C303.972 212.081 303.661 207.377 303.65 207.133C303.628 206.877 303.406 206.678 303.151 206.689C302.896 206.711 302.696 206.933 302.707 207.188C302.707 207.266 303.195 214.689 300.656 219.338C300.523 219.571 300.612 219.848 300.844 219.981C301.077 220.114 301.355 220.026 301.488 219.793C302.053 218.761 302.474 217.618 302.785 216.453V216.464Z" fill="#FB8E77"/>
<path d="M214.55 125.436C210.336 125.436 206.488 126.945 203.494 129.452C200.5 126.945 196.641 125.436 192.438 125.436C183.046 125.436 175.417 132.947 175.195 142.301C172.489 143.3 169.517 144.154 165.791 144.853C143.547 149.058 163.629 176.109 163.629 176.109L168.885 182.323C168.885 182.323 183.312 173.136 179.908 159.921L217.222 166.434C222.257 162.329 225.428 158.29 227.147 154.495C230.03 151.411 231.804 147.272 231.804 142.723C231.804 133.18 224.075 125.447 214.539 125.447L214.55 125.436Z" fill="#243762"/>
<path d="M179.209 157.724C184.964 172.104 168.896 182.323 168.896 182.323L163.186 175.577C162.742 175.688 162.299 175.821 161.877 175.987C158.639 177.319 156.344 180.503 156.344 184.231C156.344 189.169 160.325 193.152 165.248 193.152H167.377V234.605C167.377 243.238 174.374 250.239 183.002 250.239H183.024C191.651 250.239 198.648 243.238 198.648 234.605V219.682C209.161 219.105 217.511 210.417 217.511 199.765V163.227C217.511 161.397 217.267 159.621 216.867 157.913C204.758 145.408 179.22 157.724 179.22 157.724H179.209Z" fill="#FFBA94"/>
<path opacity="0.46" d="M197.539 217.529H190.409C189.367 217.529 188.347 217.429 187.349 217.274L184.41 216.608C176.315 214.056 170.438 206.489 170.438 197.557V193.929L167.366 193.152V199.754C167.366 205.413 169.728 210.517 173.521 214.156L198.293 230.977V219.737L198.16 219.704C208.894 219.371 217.511 210.583 217.511 199.754V197.546C217.511 208.575 208.573 217.518 197.55 217.518L197.539 217.529Z" fill="#FB8E77"/>
<path d="M197.284 180.07C197.284 180.88 196.63 181.524 195.832 181.524C195.033 181.524 194.379 180.869 194.379 180.07C194.379 179.272 195.033 178.617 195.832 178.617C196.63 178.617 197.284 179.272 197.284 180.07Z" fill="#233863"/>
<path d="M212.576 178.961C212.576 179.771 211.922 180.414 211.124 180.414C210.325 180.414 209.671 179.76 209.671 178.961C209.671 178.162 210.325 177.507 211.124 177.507C211.922 177.507 212.576 178.162 212.576 178.961Z" fill="#233863"/>
<path d="M202.263 193.152C201.675 193.152 201.043 193.108 200.345 193.03C200.001 192.986 199.768 192.708 199.813 192.409C199.857 192.109 200.19 191.898 200.522 191.943C205.324 192.553 206.921 190.622 207.375 189.757C207.453 189.613 207.464 189.446 207.397 189.291L202.33 176.198C202.219 175.91 202.396 175.599 202.718 175.499C203.039 175.399 203.394 175.555 203.505 175.843L208.573 188.936C208.739 189.357 208.706 189.823 208.495 190.223C207.985 191.166 206.41 193.141 202.252 193.141L202.263 193.152Z" fill="#FB8E77"/>
<path d="M200.622 211.027C200.456 211.027 200.278 210.949 200.179 210.794C198.837 208.952 196.586 209.629 196.553 209.64C196.253 209.729 195.954 209.563 195.854 209.274C195.765 208.986 195.932 208.675 196.22 208.575C197.273 208.253 199.624 208.153 201.066 210.14C201.243 210.384 201.188 210.739 200.944 210.916C200.844 210.983 200.733 211.027 200.622 211.027Z" fill="#FB8E77"/>
<path d="M190.82 173.025C191.363 173.125 191.995 172.914 192.616 172.736C193.237 172.548 193.858 172.381 194.413 172.248C194.967 172.115 195.599 171.993 196.231 171.882C196.863 171.76 197.518 171.671 197.961 171.338C198.382 171.028 198.449 170.406 197.717 169.84C197.03 169.274 195.488 168.853 193.659 169.274C191.84 169.707 190.665 170.761 190.321 171.571C189.955 172.403 190.288 172.925 190.82 173.014V173.025Z" fill="#233863"/>
<path d="M213.596 172.304C213.197 172.37 212.732 172.204 212.288 172.071C211.833 171.926 211.379 171.793 210.979 171.693C210.58 171.593 210.115 171.494 209.649 171.405C209.183 171.305 208.706 171.238 208.385 170.983C208.074 170.75 208.041 170.295 208.573 169.885C209.083 169.474 210.225 169.186 211.556 169.519C212.887 169.851 213.741 170.65 213.985 171.238C214.251 171.849 213.985 172.237 213.608 172.292L213.596 172.304Z" fill="#233863"/>
<path d="M162.387 187.449C162.177 187.449 161.977 187.327 161.877 187.127C161.755 186.85 161.877 186.517 162.155 186.395L164.616 185.274L162.62 181.047C162.487 180.769 162.609 180.437 162.886 180.303C163.164 180.17 163.496 180.292 163.629 180.57L166.102 185.818L162.609 187.416C162.532 187.449 162.454 187.46 162.376 187.46L162.387 187.449Z" fill="#FB8E77"/>
<path d="M194.39 202.972L191.329 202.461C187.537 201.84 184.964 198.245 185.596 194.45L185.663 194.062L197.306 195.982L196.386 201.54C196.231 202.484 195.344 203.127 194.401 202.972H194.39Z" fill="white"/>
<path d="M379.243 303.065H297.251C294.324 303.065 291.751 305.029 290.964 307.847L272.079 376.363H217.144C216.146 376.363 215.548 377.472 216.102 378.304L220.438 384.818H363.43L385.531 311.531C386.806 307.315 383.645 303.065 379.243 303.065Z" fill="#2F4770"/>
<path d="M370.472 384.984H276.792L298.016 308.014C298.793 305.184 301.365 303.232 304.304 303.232H386.296C390.698 303.232 393.858 307.481 392.583 311.698L370.483 384.984H370.472Z" fill="#233863"/>
<path opacity="0.93" d="M272.079 376.363H217.144C216.146 376.363 215.548 377.472 216.102 378.304L220.438 384.818H269.739L272.068 376.363H272.079Z" fill="#233863"/>
<path d="M335.497 340.724C339.323 340.724 342.439 343.841 342.439 347.669C342.439 351.497 339.323 354.615 335.497 354.615C331.671 354.615 328.555 351.497 328.555 347.669C328.555 343.841 331.671 340.724 335.497 340.724ZM335.497 338.504C330.462 338.504 326.337 342.632 326.337 347.669C326.337 352.707 330.462 356.834 335.497 356.834C340.531 356.834 344.656 352.707 344.656 347.669C344.656 342.632 340.531 338.504 335.497 338.504Z" fill="white"/>
</g>
<defs>
<clipPath id="clip0_39_827">
<rect width="529" height="445" fill="white"/>
</clipPath>
</defs>
</svg>
