<svg width="64" height="64" viewBox="0 0 64 64" fill="none" xmlns="http://www.w3.org/2000/svg">
<path d="M36.9999 12H11.4444C8.06659 12 5.33325 14.7333 5.33325 18.1111V45.8889C5.33325 49.2667 8.06659 52 11.4444 52H27.8444L28.3333 49.2667C28.5577 48.0222 29.1333 46.9111 30.0244 46L32.9133 43.1111H13.6666C12.7555 43.1111 11.9999 42.3556 11.9999 41.4444C11.9999 40.5333 12.7555 39.7778 13.6666 39.7778H34.7777C35.1777 39.7778 35.5555 39.9333 35.8444 40.1778L43.111 32.9333V18.1111C43.111 14.7333 40.3777 12 36.9999 12ZM34.7777 35.8889H13.6666C12.7555 35.8889 11.9999 35.1333 11.9999 34.2222C11.9999 33.3111 12.7555 32.5556 13.6666 32.5556H34.7777C35.6888 32.5556 36.4444 33.3111 36.4444 34.2222C36.4444 35.1333 35.6888 35.8889 34.7777 35.8889ZM34.7777 28.6667H13.6666C12.7555 28.6667 11.9999 27.9111 11.9999 27C11.9999 26.0889 12.7555 25.3333 13.6666 25.3333H34.7777C35.6888 25.3333 36.4444 26.0889 36.4444 27C36.4444 27.9111 35.6888 28.6667 34.7777 28.6667Z" fill="#B9DBF5"/>
<path d="M32.5555 9.77794H30.1111C29.3777 7.22238 27.0222 5.3335 24.2222 5.3335C21.4222 5.3335 19.0666 7.22238 18.3333 9.77794H15.8888C14.9777 9.77794 14.2222 10.5335 14.2222 11.4446V15.8891C14.2222 18.0224 15.9777 19.7779 18.1111 19.7779H30.3333C32.4666 19.7779 34.2222 18.0224 34.2222 15.8891V11.4446C34.2222 10.5335 33.4666 9.77794 32.5555 9.77794Z" fill="#1E80D3"/>
<path d="M36.4444 27.0002C36.4444 27.9113 35.6889 28.6668 34.7778 28.6668H13.6667C12.7556 28.6668 12 27.9113 12 27.0002C12 26.0891 12.7556 25.3335 13.6667 25.3335H34.7778C35.6889 25.3335 36.4444 26.0891 36.4444 27.0002Z" fill="#63AEE8"/>
<path d="M36.4444 34.2223C36.4444 35.1334 35.6889 35.889 34.7778 35.889H13.6667C12.7556 35.889 12 35.1334 12 34.2223C12 33.3112 12.7556 32.5557 13.6667 32.5557H34.7778C35.6889 32.5557 36.4444 33.3112 36.4444 34.2223Z" fill="#63AEE8"/>
<path d="M35.8444 40.1778L32.9111 43.1112H13.6667C12.7556 43.1112 12 42.3556 12 41.4445C12 40.5334 12.7556 39.7778 13.6667 39.7778H34.7778C35.1778 39.7778 35.5556 39.9334 35.8444 40.1778Z" fill="#63AEE8"/>
<path d="M14.2221 12H11.4444C8.06659 12 5.33325 14.7333 5.33325 18.1111V45.8889C5.33325 49.2667 8.06659 52 11.4444 52H24.2221V43.1111H13.6666C12.7555 43.1111 11.9999 42.3556 11.9999 41.4444C11.9999 40.5333 12.7555 39.7778 13.6666 39.7778H24.2221V35.8889H13.6666C12.7555 35.8889 11.9999 35.1333 11.9999 34.2222C11.9999 33.3111 12.7555 32.5556 13.6666 32.5556H24.2221V28.6667H13.6666C12.7555 28.6667 11.9999 27.9111 11.9999 27C11.9999 26.0889 12.7555 25.3333 13.6666 25.3333H24.2221V19.7778H18.111C15.9777 19.7778 14.2221 18.0222 14.2221 15.8889V12Z" fill="#E2F1FB"/>
<path d="M24.2222 5.3335C21.4222 5.3335 19.0666 7.22239 18.3333 9.77794H15.8888C14.9777 9.77794 14.2222 10.5335 14.2222 11.4446V12.0002V15.8891C14.2222 18.0224 15.9777 19.7779 18.1111 19.7779H24.2222V5.3335Z" fill="#1E80D3"/>
<path d="M24.2222 25.3335H13.6667C12.7556 25.3335 12 26.0891 12 27.0002C12 27.9113 12.7556 28.6668 13.6667 28.6668H24.2222V25.3335Z" fill="#63AEE8"/>
<path d="M24.2222 32.5557H13.6667C12.7556 32.5557 12 33.3112 12 34.2223C12 35.1334 12.7556 35.889 13.6667 35.889H24.2222V32.5557Z" fill="#63AEE8"/>
<path d="M24.2222 39.7778H13.6667C12.7556 39.7778 12 40.5334 12 41.4445C12 42.3556 12.7556 43.1112 13.6667 43.1112H24.2222V39.7778Z" fill="#63AEE8"/>
<path d="M33.1712 58.6666C32.7334 58.6666 32.3067 58.4933 31.9934 58.1777C31.609 57.7933 31.4356 57.2466 31.5312 56.7088L32.709 50.031C32.7667 49.6955 32.9312 49.3844 33.1712 49.1444L49.6712 32.6444C51.6978 30.6155 53.689 31.1621 54.7778 32.251L57.5267 34.9999C59.0445 36.5177 59.0445 38.9821 57.5267 40.4999L41.0267 56.9999C40.7867 57.2421 40.4756 57.4044 40.1378 57.4644L33.4601 58.6399L33.1712 58.6666Z" fill="#FFC107"/>
<path d="M52.5112 31.2778C51.6401 31.2778 50.6601 31.6556 49.6712 32.6445L33.1712 49.1445C32.9312 49.3845 32.7667 49.6956 32.709 50.0312L31.5312 56.7089C31.4356 57.2467 31.609 57.7934 31.9934 58.1778C32.0112 58.1956 32.0267 58.2112 32.0445 58.2267L56.3978 33.8712L54.7756 32.2489C54.2201 31.6934 53.4245 31.2778 52.5112 31.2778Z" fill="#DEA806"/>
</svg>
