<svg width="22" height="22" viewBox="0 0 22 22" fill="none" xmlns="http://www.w3.org/2000/svg">
<path fill-rule="evenodd" clip-rule="evenodd" d="M8.58858 6.85095H7.62367C7.19735 6.85095 6.85174 7.19655 6.85174 7.62288V8.58779C6.85174 9.01412 7.19735 9.35972 7.62367 9.35972H8.58858C9.01491 9.35972 9.36051 9.01412 9.36051 8.58779V7.62288C9.36051 7.19655 9.01491 6.85095 8.58858 6.85095ZM7.62367 5.69305H8.58858C9.6544 5.69305 10.5184 6.55707 10.5184 7.62288V8.58779C10.5184 9.6536 9.6544 10.5176 8.58858 10.5176H7.62367C6.55786 10.5176 5.69385 9.6536 5.69385 8.58779V7.62288C5.69385 6.55707 6.55786 5.69305 7.62367 5.69305Z" fill="white"/>
<path fill-rule="evenodd" clip-rule="evenodd" d="M7.62367 6.85095C7.19735 6.85095 6.85174 7.19655 6.85174 7.62288V8.58779C6.85174 9.01412 7.19735 9.35972 7.62367 9.35972H8.58858C9.01491 9.35972 9.36051 9.01412 9.36051 8.58779V7.62288C9.36051 7.19655 9.01491 6.85095 8.58858 6.85095H7.62367ZM5.69385 7.62288C5.69385 6.55707 6.55786 5.69305 7.62367 5.69305H8.58858C9.6544 5.69305 10.5184 6.55707 10.5184 7.62288V8.58779C10.5184 9.6536 9.6544 10.5176 8.58858 10.5176H7.62367C6.55786 10.5176 5.69385 9.6536 5.69385 8.58779V7.62288Z" fill="white"/>
<path fill-rule="evenodd" clip-rule="evenodd" d="M14.3776 6.85089H13.4127C12.9864 6.85089 12.6408 7.19649 12.6408 7.62282V8.58773C12.6408 9.01406 12.9864 9.35966 13.4127 9.35966H14.3776C14.804 9.35966 15.1496 9.01406 15.1496 8.58773V7.62282C15.1496 7.19649 14.804 6.85089 14.3776 6.85089ZM13.4127 5.69299H14.3776C15.4435 5.69299 16.3075 6.557 16.3075 7.62282V8.58773C16.3075 9.65354 15.4435 10.5176 14.3776 10.5176H13.4127C12.3469 10.5176 11.4829 9.65354 11.4829 8.58773V7.62282C11.4829 6.557 12.3469 5.69299 13.4127 5.69299Z" fill="white"/>
<path fill-rule="evenodd" clip-rule="evenodd" d="M13.4127 6.85089C12.9864 6.85089 12.6408 7.19649 12.6408 7.62282V8.58773C12.6408 9.01406 12.9864 9.35966 13.4127 9.35966H14.3776C14.804 9.35966 15.1496 9.01406 15.1496 8.58773V7.62282C15.1496 7.19649 14.804 6.85089 14.3776 6.85089H13.4127ZM11.4829 7.62282C11.4829 6.557 12.3469 5.69299 13.4127 5.69299H14.3776C15.4435 5.69299 16.3075 6.557 16.3075 7.62282V8.58773C16.3075 9.65354 15.4435 10.5176 14.3776 10.5176H13.4127C12.3469 10.5176 11.4829 9.65354 11.4829 8.58773V7.62282Z" fill="white"/>
<path fill-rule="evenodd" clip-rule="evenodd" d="M14.3776 12.6403H13.4127C12.9864 12.6403 12.6408 12.9859 12.6408 13.4122V14.3772C12.6408 14.8035 12.9864 15.1491 13.4127 15.1491H14.3776C14.804 15.1491 15.1496 14.8035 15.1496 14.3772V13.4122C15.1496 12.9859 14.804 12.6403 14.3776 12.6403ZM13.4127 11.4824H14.3776C15.4435 11.4824 16.3075 12.3464 16.3075 13.4122V14.3772C16.3075 15.443 15.4435 16.307 14.3776 16.307H13.4127C12.3469 16.307 11.4829 15.443 11.4829 14.3772V13.4122C11.4829 12.3464 12.3469 11.4824 13.4127 11.4824Z" fill="white"/>
<path fill-rule="evenodd" clip-rule="evenodd" d="M13.4127 12.6403C12.9864 12.6403 12.6408 12.9859 12.6408 13.4122V14.3772C12.6408 14.8035 12.9864 15.1491 13.4127 15.1491H14.3776C14.804 15.1491 15.1496 14.8035 15.1496 14.3772V13.4122C15.1496 12.9859 14.804 12.6403 14.3776 12.6403H13.4127ZM11.4829 13.4122C11.4829 12.3464 12.3469 11.4824 13.4127 11.4824H14.3776C15.4435 11.4824 16.3075 12.3464 16.3075 13.4122V14.3772C16.3075 15.443 15.4435 16.307 14.3776 16.307H13.4127C12.3469 16.307 11.4829 15.443 11.4829 14.3772V13.4122Z" fill="white"/>
<path fill-rule="evenodd" clip-rule="evenodd" d="M8.58858 12.6404H7.62367C7.19735 12.6404 6.85174 12.986 6.85174 13.4123V14.3772C6.85174 14.8035 7.19735 15.1491 7.62367 15.1491H8.58858C9.01491 15.1491 9.36051 14.8035 9.36051 14.3772V13.4123C9.36051 12.986 9.01491 12.6404 8.58858 12.6404ZM7.62367 11.4825H8.58858C9.6544 11.4825 10.5184 12.3465 10.5184 13.4123V14.3772C10.5184 15.443 9.6544 16.307 8.58858 16.307H7.62367C6.55786 16.307 5.69385 15.443 5.69385 14.3772V13.4123C5.69385 12.3465 6.55786 11.4825 7.62367 11.4825Z" fill="white"/>
<path fill-rule="evenodd" clip-rule="evenodd" d="M7.62367 12.6404C7.19735 12.6404 6.85174 12.986 6.85174 13.4123V14.3772C6.85174 14.8035 7.19735 15.1491 7.62367 15.1491H8.58858C9.01491 15.1491 9.36051 14.8035 9.36051 14.3772V13.4123C9.36051 12.986 9.01491 12.6404 8.58858 12.6404H7.62367ZM5.69385 13.4123C5.69385 12.3465 6.55786 11.4825 7.62367 11.4825H8.58858C9.6544 11.4825 10.5184 12.3465 10.5184 13.4123V14.3772C10.5184 15.443 9.6544 16.307 8.58858 16.307H7.62367C6.55786 16.307 5.69385 15.443 5.69385 14.3772V13.4123Z" fill="white"/>
<path fill-rule="evenodd" clip-rule="evenodd" d="M16.3072 2.99121H5.69315C4.20101 2.99121 2.99139 4.20082 2.99139 5.69296V16.307C2.99139 17.7991 4.20101 19.0088 5.69315 19.0088H16.3072C17.7993 19.0088 19.0089 17.7991 19.0089 16.307V5.69296C19.0089 4.20082 17.7993 2.99121 16.3072 2.99121ZM5.69315 1.83331H16.3072C18.4388 1.83331 20.1668 3.56134 20.1668 5.69296V16.307C20.1668 18.4386 18.4388 20.1666 16.3072 20.1666H5.69315C3.56152 20.1666 1.8335 18.4386 1.8335 16.307V5.69296C1.8335 3.56134 3.56152 1.83331 5.69315 1.83331Z" fill="white"/>
<path fill-rule="evenodd" clip-rule="evenodd" d="M5.69315 2.99121C4.20101 2.99121 2.99139 4.20082 2.99139 5.69296V16.307C2.99139 17.7991 4.20101 19.0088 5.69315 19.0088H16.3072C17.7993 19.0088 19.0089 17.7991 19.0089 16.307V5.69296C19.0089 4.20082 17.7993 2.99121 16.3072 2.99121H5.69315ZM1.8335 5.69296C1.8335 3.56134 3.56152 1.83331 5.69315 1.83331H16.3072C18.4388 1.83331 20.1668 3.56134 20.1668 5.69296V16.307C20.1668 18.4386 18.4388 20.1666 16.3072 20.1666H5.69315C3.56152 20.1666 1.8335 18.4386 1.8335 16.307V5.69296Z" fill="white"/>
</svg>
