<svg width="24" height="24" viewBox="0 0 24 24" fill="none" xmlns="http://www.w3.org/2000/svg">
<path fill-rule="evenodd" clip-rule="evenodd" d="M9.36908 7.47373H8.31644C7.85136 7.47373 7.47434 7.85075 7.47434 8.31583V9.36847C7.47434 9.83355 7.85136 10.2106 8.31644 10.2106H9.36908C9.83416 10.2106 10.2112 9.83355 10.2112 9.36847V8.31583C10.2112 7.85075 9.83416 7.47373 9.36908 7.47373ZM8.31644 6.21057H9.36908C10.5318 6.21057 11.4743 7.15313 11.4743 8.31583V9.36847C11.4743 10.5312 10.5318 11.4737 9.36908 11.4737H8.31644C7.15374 11.4737 6.21118 10.5312 6.21118 9.36847V8.31583C6.21118 7.15313 7.15374 6.21057 8.31644 6.21057Z" fill="#329AD6"/>
<path fill-rule="evenodd" clip-rule="evenodd" d="M8.31644 7.47373C7.85136 7.47373 7.47434 7.85075 7.47434 8.31583V9.36847C7.47434 9.83355 7.85136 10.2106 8.31644 10.2106H9.36908C9.83416 10.2106 10.2112 9.83355 10.2112 9.36847V8.31583C10.2112 7.85075 9.83416 7.47373 9.36908 7.47373H8.31644ZM6.21118 8.31583C6.21118 7.15313 7.15374 6.21057 8.31644 6.21057H9.36908C10.5318 6.21057 11.4743 7.15313 11.4743 8.31583V9.36847C11.4743 10.5312 10.5318 11.4737 9.36908 11.4737H8.31644C7.15374 11.4737 6.21118 10.5312 6.21118 9.36847V8.31583Z" fill="#329AD6"/>
<path fill-rule="evenodd" clip-rule="evenodd" d="M15.6845 7.47367H14.6319C14.1668 7.47367 13.7898 7.85069 13.7898 8.31577V9.36841C13.7898 9.83349 14.1668 10.2105 14.6319 10.2105H15.6845C16.1496 10.2105 16.5266 9.83349 16.5266 9.36841V8.31577C16.5266 7.85069 16.1496 7.47367 15.6845 7.47367ZM14.6319 6.21051H15.6845C16.8472 6.21051 17.7898 7.15307 17.7898 8.31577V9.36841C17.7898 10.5311 16.8472 11.4737 15.6845 11.4737H14.6319C13.4692 11.4737 12.5266 10.5311 12.5266 9.36841V8.31577C12.5266 7.15307 13.4692 6.21051 14.6319 6.21051Z" fill="#329AD6"/>
<path fill-rule="evenodd" clip-rule="evenodd" d="M14.6319 7.47367C14.1668 7.47367 13.7898 7.85069 13.7898 8.31577V9.36841C13.7898 9.83349 14.1668 10.2105 14.6319 10.2105H15.6845C16.1496 10.2105 16.5266 9.83349 16.5266 9.36841V8.31577C16.5266 7.85069 16.1496 7.47367 15.6845 7.47367H14.6319ZM12.5266 8.31577C12.5266 7.15307 13.4692 6.21051 14.6319 6.21051H15.6845C16.8472 6.21051 17.7898 7.15307 17.7898 8.31577V9.36841C17.7898 10.5311 16.8472 11.4737 15.6845 11.4737H14.6319C13.4692 11.4737 12.5266 10.5311 12.5266 9.36841V8.31577Z" fill="#329AD6"/>
<path fill-rule="evenodd" clip-rule="evenodd" d="M15.6845 13.7895H14.6319C14.1668 13.7895 13.7898 14.1665 13.7898 14.6316V15.6842C13.7898 16.1493 14.1668 16.5263 14.6319 16.5263H15.6845C16.1496 16.5263 16.5266 16.1493 16.5266 15.6842V14.6316C16.5266 14.1665 16.1496 13.7895 15.6845 13.7895ZM14.6319 12.5263H15.6845C16.8472 12.5263 17.7898 13.4689 17.7898 14.6316V15.6842C17.7898 16.8469 16.8472 17.7895 15.6845 17.7895H14.6319C13.4692 17.7895 12.5266 16.8469 12.5266 15.6842V14.6316C12.5266 13.4689 13.4692 12.5263 14.6319 12.5263Z" fill="#329AD6"/>
<path fill-rule="evenodd" clip-rule="evenodd" d="M14.6319 13.7895C14.1668 13.7895 13.7898 14.1665 13.7898 14.6316V15.6842C13.7898 16.1493 14.1668 16.5263 14.6319 16.5263H15.6845C16.1496 16.5263 16.5266 16.1493 16.5266 15.6842V14.6316C16.5266 14.1665 16.1496 13.7895 15.6845 13.7895H14.6319ZM12.5266 14.6316C12.5266 13.4689 13.4692 12.5263 14.6319 12.5263H15.6845C16.8472 12.5263 17.7898 13.4689 17.7898 14.6316V15.6842C17.7898 16.8469 16.8472 17.7895 15.6845 17.7895H14.6319C13.4692 17.7895 12.5266 16.8469 12.5266 15.6842V14.6316Z" fill="#329AD6"/>
<path fill-rule="evenodd" clip-rule="evenodd" d="M9.36932 13.7895H8.31669C7.85161 13.7895 7.47458 14.1665 7.47458 14.6316V15.6843C7.47458 16.1493 7.85161 16.5264 8.31669 16.5264H9.36932C9.8344 16.5264 10.2114 16.1493 10.2114 15.6843V14.6316C10.2114 14.1665 9.8344 13.7895 9.36932 13.7895ZM8.31669 12.5264H9.36932C10.532 12.5264 11.4746 13.4689 11.4746 14.6316V15.6843C11.4746 16.847 10.532 17.7895 9.36932 17.7895H8.31669C7.15398 17.7895 6.21143 16.847 6.21143 15.6843V14.6316C6.21143 13.4689 7.15398 12.5264 8.31669 12.5264Z" fill="#329AD6"/>
<path fill-rule="evenodd" clip-rule="evenodd" d="M8.31669 13.7895C7.85161 13.7895 7.47458 14.1665 7.47458 14.6316V15.6843C7.47458 16.1493 7.85161 16.5264 8.31669 16.5264H9.36932C9.8344 16.5264 10.2114 16.1493 10.2114 15.6843V14.6316C10.2114 14.1665 9.8344 13.7895 9.36932 13.7895H8.31669ZM6.21143 14.6316C6.21143 13.4689 7.15398 12.5264 8.31669 12.5264H9.36932C10.532 12.5264 11.4746 13.4689 11.4746 14.6316V15.6843C11.4746 16.847 10.532 17.7895 9.36932 17.7895H8.31669C7.15398 17.7895 6.21143 16.847 6.21143 15.6843V14.6316Z" fill="#329AD6"/>
<path fill-rule="evenodd" clip-rule="evenodd" d="M17.7895 3.26316H6.21053C4.58274 3.26316 3.26316 4.58274 3.26316 6.21053V17.7895C3.26316 19.4173 4.58274 20.7368 6.21053 20.7368H17.7895C19.4173 20.7368 20.7368 19.4173 20.7368 17.7895V6.21053C20.7368 4.58274 19.4173 3.26316 17.7895 3.26316ZM6.21053 2H17.7895C20.1149 2 22 3.88512 22 6.21053V17.7895C22 20.1149 20.1149 22 17.7895 22H6.21053C3.88512 22 2 20.1149 2 17.7895V6.21053C2 3.88512 3.88512 2 6.21053 2Z" fill="#329AD6"/>
<path fill-rule="evenodd" clip-rule="evenodd" d="M6.21053 3.26316C4.58274 3.26316 3.26316 4.58274 3.26316 6.21053V17.7895C3.26316 19.4173 4.58274 20.7368 6.21053 20.7368H17.7895C19.4173 20.7368 20.7368 19.4173 20.7368 17.7895V6.21053C20.7368 4.58274 19.4173 3.26316 17.7895 3.26316H6.21053ZM2 6.21053C2 3.88512 3.88512 2 6.21053 2H17.7895C20.1149 2 22 3.88512 22 6.21053V17.7895C22 20.1149 20.1149 22 17.7895 22H6.21053C3.88512 22 2 20.1149 2 17.7895V6.21053Z" fill="#329AD6"/>
</svg>
