<svg width="24" height="24" viewBox="0 0 24 24" fill="none" xmlns="http://www.w3.org/2000/svg">
<path fill-rule="evenodd" clip-rule="evenodd" d="M5.91071 1.25C6.32493 1.25 6.66071 1.58579 6.66071 2V2.96428H16.625V2C16.625 1.58579 16.9608 1.25 17.375 1.25C17.7892 1.25 18.125 1.58579 18.125 2V2.98279C20.02 3.17094 21.5 4.76977 21.5 6.71428V19C21.5 21.0711 19.8211 22.75 17.75 22.75H5.75C3.67893 22.75 2 21.0711 2 19V6.71428C2 4.8437 3.3696 3.29301 5.16071 3.01031V2C5.16071 1.58579 5.4965 1.25 5.91071 1.25ZM5.89282 4.46428H5.75C4.50736 4.46428 3.5 5.47164 3.5 6.71428V7.92173C3.61032 7.85792 3.73839 7.82139 3.875 7.82139H19.625C19.7616 7.82139 19.8897 7.85792 20 7.92173V6.71428C20 5.47164 18.9926 4.46428 17.75 4.46428H5.92861C5.92266 4.46442 5.9167 4.46449 5.91071 4.46449C5.90473 4.46449 5.89877 4.46442 5.89282 4.46428ZM20 9.22106C19.8897 9.28487 19.7616 9.32139 19.625 9.32139H3.875C3.73839 9.32139 3.61032 9.28487 3.5 9.22106V19C3.5 20.2426 4.50736 21.25 5.75 21.25H17.75C18.9926 21.25 20 20.2426 20 19V9.22106Z" fill="#6A7181"/>
</svg>
