<svg width="24" height="24" viewBox="0 0 24 24" fill="none" xmlns="http://www.w3.org/2000/svg">
<path fill-rule="evenodd" clip-rule="evenodd" d="M1.65039 7.19999C1.65039 5.46029 3.06069 4.04999 4.80039 4.04999H19.2004C20.9401 4.04999 22.3504 5.46029 22.3504 7.19999V16.8C22.3504 18.5397 20.9401 19.95 19.2004 19.95H4.80039C3.06069 19.95 1.65039 18.5397 1.65039 16.8V7.19999ZM4.80039 5.54999C3.88912 5.54999 3.15039 6.28872 3.15039 7.19999V16.8C3.15039 17.7113 3.88912 18.45 4.80039 18.45H19.2004C20.1117 18.45 20.8504 17.7113 20.8504 16.8V7.19999C20.8504 6.28872 20.1117 5.54999 19.2004 5.54999H4.80039ZM3.58375 6.17308C3.81952 5.83252 4.28674 5.74757 4.6273 5.98334L11.7442 10.9105C11.8983 11.0171 12.1024 11.0171 12.2565 10.9105L19.3735 5.98334C19.714 5.74757 20.1813 5.83252 20.417 6.17308C20.6528 6.51364 20.5679 6.98086 20.2273 7.21663L13.1103 12.1438C12.4426 12.606 11.5582 12.6061 10.8904 12.1438L3.77348 7.21663C3.43292 6.98086 3.34797 6.51364 3.58375 6.17308Z" fill="#6A7181"/>
</svg>
