<svg width="24" height="24" viewBox="0 0 24 24" fill="none" xmlns="http://www.w3.org/2000/svg">
<path fill-rule="evenodd" clip-rule="evenodd" d="M12.0004 3.15002C10.4264 3.15002 9.15039 4.42601 9.15039 6.00002C9.15039 7.57404 10.4264 8.85002 12.0004 8.85002C13.5744 8.85002 14.8504 7.57404 14.8504 6.00002C14.8504 4.42601 13.5744 3.15002 12.0004 3.15002ZM7.65039 6.00002C7.65039 3.59759 9.59795 1.65002 12.0004 1.65002C14.4028 1.65002 16.3504 3.59759 16.3504 6.00002C16.3504 8.40246 14.4028 10.35 12.0004 10.35C9.59795 10.35 7.65039 8.40246 7.65039 6.00002ZM4.32346 15.086C6.0878 13.7169 8.66744 12.9262 12.0004 12.9262C15.3333 12.9262 17.913 13.7169 19.6773 15.086C21.4583 16.4679 22.3504 18.3975 22.3504 20.5124C22.3504 21.451 21.6487 22.35 20.6216 22.35H3.37921C2.35204 22.35 1.65039 21.451 1.65039 20.5124C1.65039 18.3975 2.5425 16.4679 4.32346 15.086ZM5.24303 16.271C3.83543 17.3633 3.15039 18.8518 3.15039 20.5124C3.15039 20.6304 3.19328 20.7228 3.24455 20.7798C3.29468 20.8355 3.34329 20.85 3.37921 20.85H20.6216C20.6575 20.85 20.7061 20.8355 20.7562 20.7798C20.8075 20.7228 20.8504 20.6304 20.8504 20.5124C20.8504 18.8518 20.1653 17.3633 18.7577 16.271C17.3335 15.1659 15.1132 14.4262 12.0004 14.4262C8.88762 14.4262 6.66726 15.1659 5.24303 16.271Z" fill="#6A7181"/>
</svg>
