<svg xmlns="http://www.w3.org/2000/svg" xmlns:xlink="http://www.w3.org/1999/xlink" width="90" height="90" viewBox="0 0 90 90">
  <defs>
    <filter id="Ellipse_331" x="0" y="0" width="90" height="90" filterUnits="userSpaceOnUse">
      <feOffset dy="3" input="SourceAlpha"/>
      <feGaussianBlur stdDeviation="3" result="blur"/>
      <feFlood flood-opacity="0.161"/>
      <feComposite operator="in" in2="blur"/>
      <feComposite in="SourceGraphic"/>
    </filter>
  </defs>
  <g id="disconnect" transform="translate(-9284 -8193)">
    <g transform="matrix(1, 0, 0, 1, 9284, 8193)" filter="url(#Ellipse_331)">
      <circle id="Ellipse_331-2" data-name="Ellipse 331" cx="36" cy="36" r="36" transform="translate(9 6)" fill="#ed1c24"/>
    </g>
    <g id="call_1_" data-name="call (1)" transform="translate(9337.55 8260.24) rotate(135)">
      <g id="Group_1051" data-name="Group 1051" transform="translate(-27 8)">
        <g id="Group_1050" data-name="Group 1050" transform="translate(0 0)">
          <path id="Path_15636" data-name="Path 15636" d="M29.8,24.169l-3.37-2.247-3-2a1.327,1.327,0,0,0-1.782.289L19.8,22.6a1.32,1.32,0,0,1-1.685.35A21.581,21.581,0,0,1,12.092,18.3a21.735,21.735,0,0,1-4.644-6.026,1.32,1.32,0,0,1,.35-1.685L10.18,8.738a1.327,1.327,0,0,0,.289-1.782l-1.935-2.9L6.226.591A1.327,1.327,0,0,0,4.44.189l-2.662,1.6A3.252,3.252,0,0,0,.3,3.7C-.426,6.351-.573,12.2,8.809,21.587S24.044,30.821,26.7,30.093a3.251,3.251,0,0,0,1.911-1.477l1.6-2.662A1.327,1.327,0,0,0,29.8,24.169Z" transform="translate(0 0)" fill="#fff"/>
        </g>
      </g>
    </g>
  </g>
</svg>
