<svg width="24" height="24" viewBox="0 0 24 24" fill="none" xmlns="http://www.w3.org/2000/svg">
<path fill-rule="evenodd" clip-rule="evenodd" d="M11.9999 3.14999C7.11218 3.14999 3.1499 7.11227 3.1499 12C3.1499 16.8877 7.11218 20.85 11.9999 20.85C16.8876 20.85 20.8499 16.8877 20.8499 12C20.8499 7.11227 16.8876 3.14999 11.9999 3.14999ZM1.6499 12C1.6499 6.28385 6.28375 1.64999 11.9999 1.64999C17.716 1.64999 22.3499 6.28385 22.3499 12C22.3499 17.7161 17.716 22.35 11.9999 22.35C6.28375 22.35 1.6499 17.7161 1.6499 12ZM11.9999 7.34999C11.1018 7.34999 10.3499 8.09573 10.3499 9.04532C10.3499 9.45953 10.0141 9.79532 9.5999 9.79532C9.18569 9.79532 8.8499 9.45953 8.8499 9.04532C8.8499 7.29388 10.247 5.84999 11.9999 5.84999C13.7528 5.84999 15.1499 7.29388 15.1499 9.04532C15.1499 10.5383 14.1346 11.8079 12.7492 12.15C12.749 12.4212 12.7489 12.7571 12.7489 13.1209C12.7489 13.5351 12.4131 13.8709 11.9989 13.8709C11.5846 13.8709 11.2489 13.5351 11.2489 13.1209C11.2489 12.6704 11.2491 12.2626 11.2494 11.9675L11.2499 11.4901C11.2505 11.0763 11.5861 10.7406 11.9999 10.7406C12.898 10.7406 13.6499 9.99492 13.6499 9.04532C13.6499 8.09573 12.898 7.34999 11.9999 7.34999ZM11.9989 16.05C12.4131 16.05 12.7489 16.3858 12.7489 16.8V16.8422C12.7489 17.2564 12.4131 17.5922 11.9989 17.5922C11.5846 17.5922 11.2489 17.2564 11.2489 16.8422V16.8C11.2489 16.3858 11.5846 16.05 11.9989 16.05Z" fill="#329AD6"/>
</svg>
