<svg width="22" height="22" viewBox="0 0 22 22" fill="none" xmlns="http://www.w3.org/2000/svg">
<path fill-rule="evenodd" clip-rule="evenodd" d="M10.9999 2.14999C6.11218 2.14999 2.1499 6.11227 2.1499 11C2.1499 15.8877 6.11218 19.85 10.9999 19.85C15.8876 19.85 19.8499 15.8877 19.8499 11C19.8499 6.11227 15.8876 2.14999 10.9999 2.14999ZM0.649902 11C0.649902 5.28385 5.28375 0.649994 10.9999 0.649994C16.716 0.649994 21.3499 5.28385 21.3499 11C21.3499 16.7161 16.716 21.35 10.9999 21.35C5.28375 21.35 0.649902 16.7161 0.649902 11ZM10.9999 6.34999C10.1018 6.34999 9.3499 7.09573 9.3499 8.04532C9.3499 8.45953 9.01412 8.79532 8.5999 8.79532C8.18569 8.79532 7.8499 8.45953 7.8499 8.04532C7.8499 6.29388 9.24704 4.84999 10.9999 4.84999C12.7528 4.84999 14.1499 6.29388 14.1499 8.04532C14.1499 9.53833 13.1346 10.8079 11.7492 11.15C11.749 11.4212 11.7489 11.7571 11.7489 12.1209C11.7489 12.5351 11.4131 12.8709 10.9989 12.8709C10.5846 12.8709 10.2489 12.5351 10.2489 12.1209C10.2489 11.6704 10.2491 11.2626 10.2494 10.9675L10.2499 10.4901C10.2505 10.0763 10.5861 9.74065 10.9999 9.74065C11.898 9.74065 12.6499 8.99492 12.6499 8.04532C12.6499 7.09573 11.898 6.34999 10.9999 6.34999ZM10.9989 15.05C11.4131 15.05 11.7489 15.3858 11.7489 15.8V15.8422C11.7489 16.2564 11.4131 16.5922 10.9989 16.5922C10.5846 16.5922 10.2489 16.2564 10.2489 15.8422V15.8C10.2489 15.3858 10.5846 15.05 10.9989 15.05Z" fill="white"/>
</svg>
