<svg xmlns="http://www.w3.org/2000/svg" xmlns:xlink="http://www.w3.org/1999/xlink" width="90" height="90" viewBox="0 0 90 90">
  <defs>
    <filter id="Ellipse_329" x="0" y="0" width="90" height="90" filterUnits="userSpaceOnUse">
      <feOffset dy="3" input="SourceAlpha"/>
      <feGaussianBlur stdDeviation="3" result="blur"/>
      <feFlood flood-opacity="0.161"/>
      <feComposite operator="in" in2="blur"/>
      <feComposite in="SourceGraphic"/>
    </filter>
  </defs>
  <g id="mute" transform="translate(-9086 -8193)">
    <g transform="matrix(1, 0, 0, 1, 9086, 8193)" filter="url(#Ellipse_329)">
      <circle id="Ellipse_329-2" data-name="Ellipse 329" cx="36" cy="36" r="36" transform="translate(9 6)" fill="#fff"/>
    </g>
    <g id="Group_2164" data-name="Group 2164">
      <g id="mic" transform="translate(9115 8219)">
        <path id="Path_15634" data-name="Path 15634" d="M26.367,14.971a.971.971,0,1,0-1.942,0,8.741,8.741,0,0,1-17.482,0,.971.971,0,1,0-1.942,0,10.683,10.683,0,0,0,9.712,10.683v2.914a.971.971,0,1,0,1.942,0V25.655A10.683,10.683,0,0,0,26.367,14.971Z" transform="translate(0 -0.345)" fill="#565b74"/>
        <path id="Path_15635" data-name="Path 15635" d="M15.8,21.425a6.8,6.8,0,0,0,6.8-6.8V8.8A6.8,6.8,0,0,0,9,8.8v5.827A6.8,6.8,0,0,0,15.8,21.425ZM10.942,8.8a4.856,4.856,0,0,1,9.712,0v5.827a4.856,4.856,0,1,1-9.712,0Z" transform="translate(-0.115)" fill="#565b74"/>
      </g>
      <line id="Line_80" data-name="Line 80" y1="22" x2="26" transform="translate(9117.5 8222.5)" fill="none" stroke="#565b74" stroke-linecap="round" stroke-width="2"/>
    </g>
  </g>
</svg>
