<svg width="24" height="24" viewBox="0 0 24 24" fill="none" xmlns="http://www.w3.org/2000/svg">
<path fill-rule="evenodd" clip-rule="evenodd" d="M11.7497 3.5C8.02369 3.5 4.95431 6.6476 4.95431 10.5918V10.6006L4.95425 10.6006L4.92684 12.9273C4.92567 14.6805 4.24769 16.1304 3.54132 17.1272H19.9547C19.2775 16.1284 18.6288 14.6764 18.6288 12.9228V12.9135L18.6289 12.9135L18.6563 10.7027C18.6539 6.69688 15.5357 3.5 11.7497 3.5ZM19.9911 17.2062C19.9911 17.2061 19.9913 17.2057 19.9918 17.2049L19.9911 17.2062ZM3.5099 17.2057C3.50988 17.2058 3.50961 17.2054 3.50914 17.2045L3.5099 17.2057ZM3.45431 10.5873C3.45666 5.87169 7.14279 2 11.7497 2C16.4195 2 20.1563 5.92588 20.1563 10.7073V10.7166H20.1562L20.1288 12.9273C20.13 14.3517 20.6768 15.5456 21.2521 16.3664L20.7166 16.7418L21.2521 16.3664C21.5716 16.8223 21.5436 17.3743 21.382 17.7689C21.2216 18.1605 20.8227 18.6272 20.1797 18.6272H3.32081C2.66744 18.6272 2.26888 18.1463 2.11218 17.7518C1.95397 17.3535 1.92922 16.7923 2.263 16.3356C2.86393 15.5135 3.42685 14.3293 3.42685 12.9228V12.914H3.4269L3.45431 10.5873ZM8.15187 20.5275C8.40197 20.1973 8.87238 20.1323 9.20257 20.3824C9.86378 20.8833 10.7548 21.2 11.7497 21.2C12.7446 21.2 13.6357 20.8833 14.2969 20.3824C14.6271 20.1323 15.0975 20.1973 15.3476 20.5275C15.5977 20.8576 15.5328 21.3281 15.2026 21.5782C14.2715 22.2834 13.0599 22.7 11.7497 22.7C10.4395 22.7 9.22793 22.2834 8.29688 21.5782C7.96669 21.3281 7.90177 20.8576 8.15187 20.5275Z" fill="#329AD6"/>
</svg>
