<svg width="64" height="64" viewBox="0 0 64 64" fill="none" xmlns="http://www.w3.org/2000/svg">
<path d="M16.5124 5.3335H41.8437C43.677 5.3335 45.1632 6.81964 45.1632 8.65298V57.1043C45.1632 57.9672 44.4636 58.6668 43.6007 58.6668H6.896C6.03308 58.6668 5.3335 57.9672 5.3335 57.1043V16.5136L12.7607 13.2525L16.5124 5.3335Z" fill="#E2F1FB"/>
<path d="M14.9497 16.5124H5.3335L16.5122 5.3335V14.9499C16.5122 15.8128 15.8128 16.5124 14.9497 16.5124Z" fill="#B9DBF5"/>
<path d="M43.6008 5.3335H25.2485V58.6668H43.6008C44.4637 58.6668 45.1633 57.9672 45.1633 57.1043V6.896C45.1633 6.03308 44.4638 5.3335 43.6008 5.3335Z" fill="#B9DBF5"/>
<path d="M36.8101 28.3574H13.6865C12.8236 28.3574 12.124 29.057 12.124 29.9199C12.124 30.7828 12.8236 31.4824 13.6865 31.4824H36.8101C37.673 31.4824 38.3726 30.7828 38.3726 29.9199C38.3726 29.057 37.673 28.3574 36.8101 28.3574Z" fill="#63AEE8"/>
<path d="M39.4337 34.6074H13.6865C12.8236 34.6074 12.124 35.307 12.124 36.1699C12.124 37.0328 12.8236 37.7324 13.6865 37.7324H39.4337C40.2966 37.7324 40.9962 37.0328 40.9962 36.1699C40.9962 35.307 40.2966 34.6074 39.4337 34.6074Z" fill="#63AEE8"/>
<path d="M23.6678 40.8574H13.6865C12.8236 40.8574 12.124 41.557 12.124 42.4199C12.124 43.2828 12.8236 43.9824 13.6865 43.9824H23.6678C24.5307 43.9824 25.2303 43.2828 25.2303 42.4199C25.2303 41.557 24.5307 40.8574 23.6678 40.8574Z" fill="#63AEE8"/>
<path d="M23.6678 22.0601H13.6865C12.8236 22.0601 12.124 22.7596 12.124 23.6226C12.124 24.4855 12.8236 25.1851 13.6865 25.1851H23.6678C24.5307 25.1851 25.2303 24.4855 25.2303 23.6226C25.2303 22.7596 24.5307 22.0601 23.6678 22.0601Z" fill="#63AEE8"/>
<path d="M23.6678 47.1074H13.6865C12.8236 47.1074 12.124 47.807 12.124 48.6699C12.124 49.5328 12.8236 50.2324 13.6865 50.2324H23.6678C24.5307 50.2324 25.2303 49.5328 25.2303 48.6699C25.2303 47.807 24.5307 47.1074 23.6678 47.1074Z" fill="#63AEE8"/>
<path d="M39.434 34.6074H25.2485V37.7324H39.434C40.2969 37.7324 40.9965 37.0328 40.9965 36.1699C40.9965 35.307 40.2969 34.6074 39.434 34.6074Z" fill="#439DE5"/>
<path d="M36.8103 28.3574H25.2485V31.4824H36.8103C37.6732 31.4824 38.3728 30.7828 38.3728 29.9199C38.3728 29.057 37.6732 28.3574 36.8103 28.3574Z" fill="#439DE5"/>
<path d="M45.1629 44.0959C52.0937 44.0959 57.7121 38.4893 57.7121 31.5731C57.7121 24.6569 52.0937 19.0503 45.1629 19.0503C38.2322 19.0503 32.6138 24.6569 32.6138 31.5731C32.6138 38.4893 38.2322 44.0959 45.1629 44.0959Z" fill="#E2F1FB"/>
<path d="M45.1636 19.0508V44.0964C52.0833 44.0964 57.7127 38.4787 57.7127 31.5736C57.7127 24.6685 52.0833 19.0508 45.1636 19.0508Z" fill="#B9DBF5"/>
<path d="M49.1379 33.3103L47.3759 31.5654L49.125 29.8076C49.7336 29.1959 49.7312 28.2066 49.1195 27.5979C48.5078 26.9894 47.5184 26.9917 46.9098 27.6034L45.1554 29.3665L43.388 27.6163C42.7749 27.009 41.7855 27.0139 41.1783 27.6271C40.5711 28.2402 40.5759 29.2296 41.1892 29.8368L42.9511 31.5818L41.202 33.3396C40.5933 33.9513 40.5957 34.9406 41.2075 35.5493C41.5124 35.8526 41.9109 36.0042 42.3096 36.0042C42.7107 36.0042 43.1119 35.8505 43.4172 35.5438L45.1716 33.7806L46.9389 35.5308C47.2434 35.8325 47.6409 35.9831 48.0382 35.9831C48.4406 35.9831 48.843 35.8287 49.1485 35.5201C49.7558 34.9069 49.751 33.9175 49.1379 33.3103Z" fill="#FC6B6B"/>
<path d="M47.376 31.5659L49.125 29.8081C49.7337 29.1964 49.7313 28.2071 49.1195 27.5984C48.5078 26.9899 47.5185 26.9922 46.9098 27.6039L45.1636 29.3588V33.7891L45.1717 33.781L46.939 35.5312C47.2436 35.8329 47.6411 35.9835 48.0384 35.9835C48.4408 35.9835 48.8432 35.829 49.1487 35.5205C49.7559 34.9074 49.7511 33.918 49.1378 33.3108L47.376 31.5659Z" fill="#C62A52"/>
</svg>
