<svg width="22" height="18" viewBox="0 0 22 18" fill="none" xmlns="http://www.w3.org/2000/svg">
<path fill-rule="evenodd" clip-rule="evenodd" d="M8.71419 2.4357C7.61356 2.4357 6.72133 3.32793 6.72133 4.42856C6.72133 5.52918 7.61356 6.42141 8.71419 6.42141C9.81481 6.42141 10.707 5.52918 10.707 4.42856C10.707 3.32793 9.81481 2.4357 8.71419 2.4357ZM5.22133 4.42856C5.22133 2.4995 6.78514 0.935699 8.71419 0.935699C10.6432 0.935699 12.207 2.4995 12.207 4.42856C12.207 6.35761 10.6432 7.92141 8.71419 7.92141C6.78514 7.92141 5.22133 6.35761 5.22133 4.42856ZM13.9507 1.6771C14.1581 1.31855 14.6169 1.19603 14.9754 1.40344C16.0175 2.00624 16.7213 3.13476 16.7213 4.42856C16.7213 5.72235 16.0175 6.85087 14.9754 7.45367C14.6169 7.66108 14.1581 7.53856 13.9507 7.18001C13.7433 6.82147 13.8658 6.36267 14.2244 6.15526C14.822 5.80956 15.2213 5.16525 15.2213 4.42856C15.2213 3.69186 14.822 3.04756 14.2244 2.70185C13.8658 2.49444 13.7433 2.03565 13.9507 1.6771ZM2.75563 11.2101C4.14038 10.1356 6.14859 9.52708 8.71419 9.52708C11.2798 9.52708 13.288 10.1356 14.6727 11.2101C16.0741 12.2975 16.7785 13.8202 16.7785 15.4856C16.7785 16.2812 16.1812 17.0643 15.2827 17.0643H2.14567C1.24721 17.0643 0.649902 16.2812 0.649902 15.4856C0.649902 13.8202 1.35425 12.2975 2.75563 11.2101ZM3.6752 12.3952C2.64719 13.1929 2.1499 14.2745 2.1499 15.4856C2.1499 15.5253 2.16214 15.5512 2.17139 15.5643H15.257C15.2662 15.5512 15.2785 15.5253 15.2785 15.4856C15.2785 14.2745 14.7812 13.1929 13.7532 12.3952C12.7085 11.5846 11.0596 11.0271 8.71419 11.0271C6.36877 11.0271 4.71983 11.5846 3.6752 12.3952ZM17.5991 10.2368C17.847 9.90497 18.317 9.83696 18.6488 10.0849C19.4144 10.6569 20.0794 11.6055 20.5482 12.5589C21.0167 13.5117 21.3499 14.5927 21.3499 15.4856C21.3499 16.2812 20.7526 17.0643 19.8541 17.0643H19.3999C18.9857 17.0643 18.6499 16.7285 18.6499 16.3143C18.6499 15.9001 18.9857 15.5643 19.3999 15.5643H19.8284C19.8377 15.5512 19.8499 15.5253 19.8499 15.4856C19.8499 14.9097 19.6168 14.064 19.2021 13.2208C18.7878 12.3782 18.2527 11.6614 17.751 11.2865C17.4192 11.0386 17.3512 10.5686 17.5991 10.2368Z" fill="white"/>
</svg>
