<svg width="64" height="64" viewBox="0 0 64 64" fill="none" xmlns="http://www.w3.org/2000/svg">
<path d="M55.828 44.5722L45.5317 40.2641V24.8528L55.828 20.5447C57.1775 19.98 58.667 20.9713 58.667 22.4343V42.6826C58.667 44.1456 57.1775 45.1369 55.828 44.5722Z" fill="#63AEE8"/>
<path d="M39.908 49.1166H10.9571C7.85125 49.1166 5.3335 46.5988 5.3335 43.493V21.6236C5.3335 18.5178 7.85125 16 10.9571 16H39.908C43.0138 16 45.5316 18.5178 45.5316 21.6236V43.493C45.5316 46.5988 43.0138 49.1166 39.908 49.1166Z" fill="#8EC5EF"/>
<path d="M33.4119 30.3874L21.1033 23.281C19.432 22.3161 17.3428 23.5223 17.3428 25.4522V39.6649C17.3428 41.5948 19.432 42.801 21.1033 41.836L33.4119 34.7297C35.0832 33.7647 35.0832 31.3523 33.4119 30.3874Z" fill="#F0F0FC"/>
<path opacity="0.1" d="M45.5311 21.6267V43.493C45.5311 46.5951 43.009 49.1172 39.9068 49.1172H23.2612C26.5651 45.9016 30.6382 40.643 32.265 33.2407C33.8917 25.8007 32.3281 19.5459 31.0292 16.0024H39.9068C43.009 16.0024 45.5311 18.5119 45.5311 21.6267Z" fill="#115EAF"/>
</svg>
