<svg xmlns="http://www.w3.org/2000/svg" xmlns:xlink="http://www.w3.org/1999/xlink" width="90" height="90" viewBox="0 0 90 90">
  <defs>
    <filter id="Ellipse_330" x="0" y="0" width="90" height="90" filterUnits="userSpaceOnUse">
      <feOffset dy="3" input="SourceAlpha"/>
      <feGaussianBlur stdDeviation="3" result="blur"/>
      <feFlood flood-opacity="0.161"/>
      <feComposite operator="in" in2="blur"/>
      <feComposite in="SourceGraphic"/>
    </filter>
  </defs>
  <g id="screenshot" transform="translate(-9185 -8193)">
    <g transform="matrix(1, 0, 0, 1, 9185, 8193)" filter="url(#Ellipse_330)">
      <circle id="Ellipse_330-2" data-name="Ellipse 330" cx="36" cy="36" r="36" transform="translate(9 6)" fill="#fff"/>
    </g>
    <path id="screenshot_1_" data-name="screenshot (1)" d="M18.614,12A6.614,6.614,0,1,0,12,18.614,6.621,6.621,0,0,0,18.614,12ZM12,17.114A5.114,5.114,0,1,1,17.114,12,5.119,5.119,0,0,1,12,17.114ZM8.063,0a.75.75,0,0,1,0,1.5H3.2A1.706,1.706,0,0,0,1.5,3.2V8.063a.75.75,0,0,1-1.5,0V3.2A3.208,3.208,0,0,1,3.2,0ZM24,15.938V20.8A3.208,3.208,0,0,1,20.8,24H15.938a.75.75,0,1,1,0-1.5H20.8a1.706,1.706,0,0,0,1.7-1.7V15.938a.75.75,0,1,1,1.5,0Zm-24,0a.75.75,0,0,1,1.5,0V20.8a1.706,1.706,0,0,0,1.7,1.7H8.063a.75.75,0,1,1,0,1.5H3.2A3.208,3.208,0,0,1,0,20.8ZM24,3.2V8.063a.75.75,0,1,1-1.5,0V3.2a1.706,1.706,0,0,0-1.7-1.7H15.938a.75.75,0,0,1,0-1.5H20.8A3.208,3.208,0,0,1,24,3.2Z" transform="translate(9218.5 8223.5)" fill="#565b74" stroke="#565b74" stroke-width="0.5"/>
  </g>
</svg>
