<svg width="24" height="24" viewBox="0 0 24 24" fill="none" xmlns="http://www.w3.org/2000/svg">
<path fill-rule="evenodd" clip-rule="evenodd" d="M10.7993 9.05553C11.3889 8.81133 12.0376 8.74744 12.6634 8.87193C13.2893 8.99642 13.8642 9.30371 14.3154 9.75492C14.7666 10.2061 15.0739 10.781 15.1984 11.4069C15.3229 12.0327 15.259 12.6815 15.0148 13.271C14.7706 13.8605 14.357 14.3644 13.8265 14.7189C13.2959 15.0735 12.6721 15.2627 12.034 15.2627C11.1783 15.2627 10.3577 14.9228 9.7526 14.3177C9.14754 13.7126 8.80762 12.892 8.80762 12.0363C8.80762 11.3982 8.99684 10.7744 9.35136 10.2438C9.70588 9.71326 10.2098 9.29973 10.7993 9.05553ZM12.3708 10.3431C12.0359 10.2765 11.6888 10.3107 11.3733 10.4414C11.0579 10.572 10.7883 10.7933 10.5986 11.0772C10.4089 11.3611 10.3076 11.6949 10.3076 12.0363C10.3076 12.4942 10.4895 12.9333 10.8133 13.257C11.137 13.5808 11.5761 13.7627 12.034 13.7627C12.3754 13.7627 12.7092 13.6614 12.9931 13.4717C13.277 13.282 13.4983 13.0124 13.629 12.697C13.7596 12.3815 13.7938 12.0344 13.7272 11.6995C13.6606 11.3646 13.4962 11.057 13.2547 10.8156C13.0133 10.5741 12.7057 10.4097 12.3708 10.3431Z" fill="white"/>
<path fill-rule="evenodd" clip-rule="evenodd" d="M12.0366 3.75C11.8016 3.75 11.576 3.84174 11.4077 4.00568C11.2414 4.16768 11.1441 4.3875 11.1358 4.6193V4.74647L11.1358 4.74825C11.1349 5.16061 11.0132 5.56366 10.7858 5.90767C10.5585 6.25169 10.2354 6.52161 9.85638 6.68415C9.79067 6.71233 9.72141 6.73091 9.65073 6.73946C9.30453 6.86225 8.93132 6.89292 8.56808 6.82708C8.15275 6.75179 7.7695 6.55377 7.46779 6.25857L7.46195 6.25285L7.41204 6.20288C7.40601 6.19685 7.40009 6.19072 7.39426 6.18448C7.31172 6.09611 7.21224 6.02524 7.10174 5.97612C6.99124 5.92699 6.87198 5.9006 6.75107 5.89852C6.63016 5.89644 6.51006 5.91872 6.39794 5.96402C6.28582 6.00933 6.18396 6.07673 6.09842 6.16222C6.01289 6.24771 5.94544 6.34953 5.90008 6.46164C5.85473 6.57374 5.83239 6.69382 5.83441 6.81473C5.83643 6.93564 5.86276 7.05491 5.91184 7.16544C5.96091 7.27596 6.03172 7.37548 6.12006 7.45807C6.1262 7.46381 6.13225 7.46966 6.1382 7.4756L6.19391 7.53132C6.48911 7.83302 6.6871 8.2163 6.76239 8.63164C6.83627 9.03923 6.78863 9.45936 6.62568 9.83981C6.47756 10.2285 6.21786 10.565 5.87898 10.8069C5.53368 11.0533 5.12217 11.19 4.69806 11.1992L4.68178 11.1994H4.61932C4.38752 11.2076 4.16768 11.3049 4.00568 11.4712C3.84174 11.6395 3.75 11.8652 3.75 12.1001C3.75 12.3351 3.84174 12.5607 4.00568 12.729C4.16768 12.8953 4.38752 12.9926 4.61932 13.0009H4.75321C5.16927 13.0033 5.57541 13.1281 5.92107 13.3597C6.26673 13.5913 6.53665 13.9194 6.69722 14.3033C6.85779 14.6871 6.90192 15.1097 6.82412 15.5184C6.74632 15.9271 6.55002 16.304 6.25966 16.602L6.25286 16.6089L6.20288 16.6588C6.03381 16.8279 5.93883 17.0572 5.93883 17.2963C5.93883 17.5354 6.03381 17.7647 6.20289 17.9338C6.37196 18.1029 6.60127 18.1979 6.84038 18.1979C7.07948 18.1979 7.3088 18.1029 7.47787 17.9338L7.53359 17.8781C7.83529 17.5829 8.21857 17.3849 8.63391 17.3096C9.04149 17.2357 9.46162 17.2834 9.84207 17.4463C10.2308 17.5944 10.5673 17.8541 10.8091 18.193C11.0556 18.5383 11.1923 18.9498 11.2015 19.3739L11.2017 19.3902V19.4538C11.2099 19.6856 11.3072 19.9055 11.4735 20.0675C11.6418 20.2314 11.8674 20.3231 12.1024 20.3231C12.3373 20.3231 12.563 20.2314 12.7313 20.0675C12.8976 19.9055 12.9949 19.6856 13.0031 19.4538V19.3244L13.0031 19.3199C13.0056 18.9039 13.1304 18.4977 13.362 18.1521C13.5936 17.8064 13.9217 17.5365 14.3055 17.3759C14.6894 17.2153 15.112 17.1712 15.5207 17.249C15.9294 17.3268 16.3062 17.5231 16.6042 17.8135L16.6112 17.8203L16.6611 17.8703C16.7448 17.954 16.8442 18.0204 16.9536 18.0657C17.063 18.111 17.1802 18.1343 17.2986 18.1343C17.417 18.1343 17.5342 18.111 17.6436 18.0657C17.753 18.0204 17.8524 17.954 17.9361 17.8703C18.0198 17.7865 18.0862 17.6871 18.1315 17.5778C18.1768 17.4684 18.2001 17.3511 18.2001 17.2328C18.2001 17.1144 18.1768 16.9971 18.1315 16.8877C18.0862 16.7784 18.0198 16.679 17.9361 16.5953L17.8804 16.5395C17.5852 16.2378 17.3872 15.8546 17.3119 15.4392C17.2412 15.0492 17.2818 14.6477 17.4282 14.2805C17.4352 14.2587 17.4433 14.2371 17.4525 14.2156C17.6151 13.8366 17.885 13.5135 18.229 13.2862C18.573 13.0588 18.9761 12.9371 19.3884 12.9362L19.3902 12.9362L19.4561 12.9362C19.6879 12.9279 19.9077 12.8306 20.0697 12.6643C20.2337 12.496 20.3254 12.2704 20.3254 12.0354C20.3254 11.8005 20.2337 11.5748 20.0697 11.4065C19.9077 11.2402 19.6879 11.1429 19.4561 11.1347H19.3267L19.3249 11.1347C18.9125 11.1337 18.5095 11.012 18.1655 10.7847C17.8214 10.5573 17.5515 10.2342 17.389 9.85525C17.3608 9.78955 17.3422 9.7203 17.3337 9.64963C17.2109 9.30342 17.1802 8.9302 17.2461 8.56695C17.3213 8.15161 17.5194 7.76837 17.8146 7.46666L17.8203 7.46082L17.8703 7.41091C18.0393 7.24184 18.1343 7.01253 18.1343 6.77342C18.1343 6.53431 18.0393 6.305 17.8703 6.13593C17.7012 5.96685 17.4719 5.87187 17.2328 5.87187C16.9937 5.87187 16.7643 5.96685 16.5953 6.13593L16.5384 6.19275C16.2404 6.48311 15.8636 6.67936 15.4549 6.75716C15.0461 6.83496 14.6235 6.79083 14.2397 6.63026C13.8559 6.46969 13.5277 6.19977 13.2962 5.85411C13.0646 5.50845 12.9398 5.10231 12.9373 4.68625L12.9373 4.68178V4.61932C12.9291 4.38752 12.8318 4.16768 12.6655 4.00568C12.4972 3.84174 12.2715 3.75 12.0366 3.75ZM10.361 2.93121C10.8094 2.49443 11.4106 2.25 12.0366 2.25C12.6625 2.25 13.2638 2.49443 13.7121 2.93121C14.1605 3.36799 14.4206 3.9626 14.437 4.58835L14.4373 4.60801V4.67911C14.4384 4.80029 14.4749 4.91852 14.5423 5.01923C14.6101 5.12043 14.7062 5.19946 14.8186 5.24647C14.931 5.29348 15.0547 5.3064 15.1744 5.28362C15.2927 5.26109 15.402 5.2046 15.4888 5.12109L15.5346 5.07527C15.985 4.62489 16.5958 4.37187 17.2328 4.37187C17.8697 4.37187 18.4805 4.62489 18.9309 5.07527C19.3813 5.52564 19.6343 6.13649 19.6343 6.77342C19.6343 7.41035 19.3813 8.02119 18.9309 8.47157L18.8844 8.51806C18.8002 8.60511 18.7436 8.71524 18.722 8.83449C18.7002 8.95483 18.7149 9.07894 18.7643 9.19082C18.7874 9.24306 18.8044 9.29763 18.815 9.35343C18.8608 9.42477 18.9212 9.48614 18.9925 9.53329C19.092 9.59902 19.2085 9.63427 19.3277 9.63471H19.4674L19.4871 9.63496C20.1128 9.65137 20.7074 9.91148 21.1442 10.3599C21.581 10.8083 21.8254 11.4095 21.8254 12.0354C21.8254 12.6614 21.581 13.2626 21.1442 13.711C20.7074 14.1594 20.1128 14.4195 19.4871 14.4359L19.4674 14.4362H19.3911C19.2719 14.4366 19.1555 14.4719 19.0561 14.5376C18.968 14.5958 18.8966 14.6757 18.8487 14.7693C18.8431 14.7848 18.8369 14.8001 18.8302 14.8154C18.7808 14.9272 18.766 15.0513 18.7878 15.1717C18.8094 15.2909 18.866 15.4011 18.9503 15.4881L18.9967 15.5346C19.2197 15.7576 19.3966 16.0224 19.5173 16.3137C19.638 16.6051 19.7001 16.9174 19.7001 17.2328C19.7001 17.5481 19.638 17.8604 19.5173 18.1518C19.3966 18.4432 19.2197 18.7079 18.9967 18.9309C18.7737 19.1539 18.509 19.3308 18.2176 19.4515C17.9262 19.5722 17.614 19.6343 17.2986 19.6343C16.9832 19.6343 16.6709 19.5722 16.3795 19.4515C16.0882 19.3308 15.8234 19.1539 15.6004 18.9309L15.5546 18.8851C15.4678 18.8016 15.3586 18.7451 15.2402 18.7226C15.1205 18.6998 14.9968 18.7127 14.8844 18.7597C14.772 18.8067 14.676 18.8857 14.6082 18.9869C14.5407 19.0877 14.5042 19.2059 14.5031 19.3271V19.4651L14.5029 19.4848C14.4865 20.1105 14.2263 20.7051 13.778 21.1419C13.3296 21.5787 12.7284 21.8231 12.1024 21.8231C11.4764 21.8231 10.8752 21.5787 10.4268 21.1419C9.97844 20.7051 9.71833 20.1105 9.70192 19.4848L9.70166 19.4651V19.4C9.69776 19.2794 9.65829 19.1626 9.58816 19.0644C9.51677 18.9643 9.4169 18.8881 9.30156 18.8456C9.28679 18.8402 9.27218 18.8343 9.25778 18.8279C9.1459 18.7785 9.02179 18.7637 8.90145 18.7856C8.7822 18.8072 8.67208 18.8637 8.58503 18.948L8.53853 18.9945C8.08815 19.4448 7.47731 19.6979 6.84038 19.6979C6.20345 19.6979 5.5926 19.4448 5.14223 18.9945C4.69185 18.5441 4.43883 17.9332 4.43883 17.2963C4.43883 16.6594 4.69185 16.0485 5.14223 15.5982L5.18805 15.5523C5.27156 15.4655 5.32805 15.3563 5.35058 15.2379C5.37336 15.1183 5.36044 14.9945 5.31343 14.8822C5.26642 14.7698 5.18739 14.6737 5.08619 14.6059C4.98548 14.5384 4.86725 14.5019 4.74607 14.5009H4.60801L4.58835 14.5006C3.9626 14.4842 3.36799 14.2241 2.93121 13.7757C2.49443 13.3273 2.25 12.7261 2.25 12.1001C2.25 11.4742 2.49443 10.8729 2.93121 10.4246C3.36799 9.97617 3.9626 9.71606 4.58835 9.69965L4.60801 9.6994H4.67203C4.79259 9.69549 4.90937 9.65602 5.00764 9.58589C5.10769 9.5145 5.18392 9.41463 5.22639 9.29929C5.23183 9.28452 5.23774 9.26991 5.2441 9.25551C5.29351 9.14363 5.30826 9.01952 5.28644 8.89918C5.26482 8.77991 5.20827 8.66978 5.124 8.58272L5.08562 8.54435C4.85494 8.32619 4.66978 8.06442 4.5409 7.77415C4.41015 7.47968 4.34 7.16192 4.33462 6.83977C4.32924 6.51763 4.38875 6.1977 4.50959 5.89903C4.63043 5.60036 4.81015 5.32907 5.03802 5.1013C5.2659 4.87353 5.53728 4.69395 5.83601 4.57326C6.13474 4.45256 6.4547 4.39321 6.77684 4.39874C7.09898 4.40428 7.41671 4.47459 7.71112 4.60548C8.00126 4.73447 8.26289 4.91971 8.48091 5.15043L8.51918 5.1887C8.60624 5.27297 8.71636 5.32951 8.83563 5.35113C8.95596 5.37295 9.08008 5.3582 9.19195 5.30879C9.2442 5.28572 9.29876 5.26876 9.35456 5.25812C9.42591 5.21231 9.48727 5.15196 9.53443 5.08062C9.60016 4.98116 9.6354 4.86468 9.63584 4.74548V4.60801L9.6361 4.58835C9.65251 3.9626 9.91261 3.36799 10.361 2.93121Z" fill="white"/>
</svg>
