<svg xmlns="http://www.w3.org/2000/svg" width="136" height="136" viewBox="0 0 136 136">
  <g id="video-call" transform="translate(-787 -466)">
    <circle id="Ellipse_1590" data-name="Ellipse 1590" cx="68" cy="68" r="68" transform="translate(787 466)" fill="#fff"/>
    <g id="video-call-2" data-name="video-call" transform="translate(818 497)">
      <path id="Path_15656" data-name="Path 15656" d="M67.6,0H6.514A6.522,6.522,0,0,0,0,6.514V48.93a6.522,6.522,0,0,0,6.514,6.514H29.795c-.326,1.514-.816,3.549-1.476,5.644-1.97,6.248-3.851,8.124-4.806,8.687H17.372a2.171,2.171,0,1,0,0,4.343H56.747a2.171,2.171,0,1,0,0-4.343H50.723c-.952-.561-2.826-2.429-4.792-8.642-.666-2.106-1.161-4.162-1.49-5.689H67.6a6.522,6.522,0,0,0,6.514-6.514V6.514A6.522,6.522,0,0,0,67.6,0Zm2.171,6.514V38.362H63.551V31.269A6.405,6.405,0,0,0,61.035,26.3c-.036-.029-.073-.056-.11-.084a6.8,6.8,0,1,0-10.669,0,6.4,6.4,0,0,0-2.629,5.047v7.093h-8.4V4.343H67.6A2.174,2.174,0,0,1,69.776,6.514ZM51.97,38.362V31.269c0-1.311,1.691-2.461,3.619-2.461a4.432,4.432,0,0,1,2.733.885,2.138,2.138,0,0,1,.886,1.576v7.093ZM53.128,22a2.461,2.461,0,1,1,2.461,2.461A2.464,2.464,0,0,1,53.128,22ZM6.514,4.343H34.888V38.362h-8.4V31.269A6.4,6.4,0,0,0,23.976,26.3c-.036-.029-.073-.056-.11-.084a6.8,6.8,0,1,0-10.669,0,6.4,6.4,0,0,0-2.629,5.047v7.093H4.343V6.514A2.174,2.174,0,0,1,6.514,4.343Zm8.4,34.019V31.269c0-1.311,1.691-2.461,3.619-2.461a4.432,4.432,0,0,1,2.733.885,2.138,2.138,0,0,1,.886,1.576v7.093ZM16.069,22a2.461,2.461,0,1,1,2.461,2.461A2.464,2.464,0,0,1,16.069,22Zm25.707,40.39a32.728,32.728,0,0,0,3.188,7.381H29.273a32.728,32.728,0,0,0,3.188-7.381,69.147,69.147,0,0,0,1.772-6.95H40a69.139,69.139,0,0,0,1.772,6.95ZM67.6,51.1H6.514A2.174,2.174,0,0,1,4.343,48.93V42.705H69.776V48.93A2.174,2.174,0,0,1,67.6,51.1Z" fill="#565b74"/>
    </g>
  </g>
</svg>
