<svg xmlns="http://www.w3.org/2000/svg" xmlns:xlink="http://www.w3.org/1999/xlink" width="90" height="90" viewBox="0 0 90 90">
  <defs>
    <filter id="Ellipse_329" x="0" y="0" width="90" height="90" filterUnits="userSpaceOnUse">
      <feOffset dy="3" input="SourceAlpha"/>
      <feGaussianBlur stdDeviation="3" result="blur"/>
      <feFlood flood-opacity="0.161"/>
      <feComposite operator="in" in2="blur"/>
      <feComposite in="SourceGraphic"/>
    </filter>
  </defs>
  <g id="video_recording" data-name="video recording" transform="translate(-528 -907)">
    <g id="Group_1105" data-name="Group 1105" transform="translate(-8558 -7286)">
      <g transform="matrix(1, 0, 0, 1, 9086, 8193)" filter="url(#Ellipse_329)">
        <circle id="Ellipse_329-2" data-name="Ellipse 329" cx="36" cy="36" r="36" transform="translate(9 6)" fill="#fff"/>
      </g>
    </g>
    <g id="Group_1056" data-name="Group 1056" transform="translate(561 937)">
      <g id="Group_1055" data-name="Group 1055">
        <path id="Path_15637" data-name="Path 15637" d="M112.769,106.667a6.1,6.1,0,1,0,6.1,6.1A6.105,6.105,0,0,0,112.769,106.667Z" transform="translate(-100.563 -100.564)" fill="#ed1c24"/>
        <path id="Path_15638" data-name="Path 15638" d="M12.206,0A12.206,12.206,0,1,0,24.412,12.206,12.2,12.2,0,0,0,12.206,0Zm0,21.971a9.765,9.765,0,1,1,9.765-9.765A9.762,9.762,0,0,1,12.206,21.971Z" fill="#ed1c24"/>
      </g>
    </g>
  </g>
</svg>
