<svg width="24" height="24" viewBox="0 0 24 24" fill="none" xmlns="http://www.w3.org/2000/svg">
<path fill-rule="evenodd" clip-rule="evenodd" d="M11.9999 1.64999C12.4141 1.64999 12.7499 1.98578 12.7499 2.39999V3.06206C12.7499 3.47628 12.4141 3.81206 11.9999 3.81206C11.5857 3.81206 11.2499 3.47628 11.2499 3.06206V2.39999C11.2499 1.98578 11.5857 1.64999 11.9999 1.64999ZM4.68073 4.68147C4.97362 4.38857 5.4485 4.38857 5.74139 4.68147L6.20954 5.14962C6.50244 5.44251 6.50244 5.91739 6.20954 6.21028C5.91665 6.50317 5.44178 6.50317 5.14888 6.21028L4.68073 5.74213C4.38784 5.44923 4.38784 4.97436 4.68073 4.68147ZM19.319 4.68152C19.6119 4.97441 19.6119 5.44929 19.319 5.74218L18.8509 6.21033C18.558 6.50322 18.0831 6.50322 17.7902 6.21033C17.4973 5.91744 17.4973 5.44256 17.7902 5.14967L18.2584 4.68152C18.5513 4.38862 19.0261 4.38862 19.319 4.68152ZM11.987 7.41724C9.47598 7.41724 7.44042 9.4528 7.44042 11.9638C7.44042 14.4748 9.47598 16.5103 11.987 16.5103C14.498 16.5103 16.5335 14.4748 16.5335 11.9638C16.5335 9.4528 14.498 7.41724 11.987 7.41724ZM5.94042 11.9638C5.94042 8.62437 8.64755 5.91724 11.987 5.91724C15.3264 5.91724 18.0335 8.62437 18.0335 11.9638C18.0335 15.3032 15.3264 18.0103 11.987 18.0103C8.64755 18.0103 5.94042 15.3032 5.94042 11.9638ZM1.6499 12C1.6499 11.5858 1.98569 11.25 2.3999 11.25H3.06197C3.47618 11.25 3.81197 11.5858 3.81197 12C3.81197 12.4142 3.47618 12.75 3.06197 12.75H2.3999C1.98569 12.75 1.6499 12.4142 1.6499 12ZM20.1878 12C20.1878 11.5858 20.5236 11.25 20.9378 11.25H21.5999C22.0141 11.25 22.3499 11.5858 22.3499 12C22.3499 12.4142 22.0141 12.75 21.5999 12.75H20.9378C20.5236 12.75 20.1878 12.4142 20.1878 12ZM17.7902 17.7897C18.0831 17.4968 18.558 17.4968 18.8509 17.7897L19.319 18.2578C19.6119 18.5507 19.6119 19.0256 19.319 19.3185C19.0261 19.6114 18.5513 19.6114 18.2584 19.3185L17.7902 18.8503C17.4973 18.5574 17.4973 18.0826 17.7902 17.7897ZM6.20954 17.7897C6.50244 18.0826 6.50244 18.5575 6.20954 18.8504L5.74139 19.3185C5.4485 19.6114 4.97362 19.6114 4.68073 19.3185C4.38784 19.0256 4.38784 18.5508 4.68073 18.2579L5.14888 17.7897C5.44178 17.4968 5.91665 17.4968 6.20954 17.7897ZM11.9999 20.1879C12.4141 20.1879 12.7499 20.5237 12.7499 20.9379V21.6C12.7499 22.0142 12.4141 22.35 11.9999 22.35C11.5857 22.35 11.2499 22.0142 11.2499 21.6V20.9379C11.2499 20.5237 11.5857 20.1879 11.9999 20.1879Z" fill="#329AD6"/>
</svg>
