<svg width="64" height="64" viewBox="0 0 64 64" fill="none" xmlns="http://www.w3.org/2000/svg">
<path d="M44.3958 58.6668H6.89575C6.03284 58.6668 5.33325 57.9672 5.33325 57.1043V6.896C5.33325 6.03308 6.03284 5.3335 6.89575 5.3335H44.3958C45.2587 5.3335 45.9583 6.03308 45.9583 6.896V57.1043C45.9583 57.9672 45.2587 58.6668 44.3958 58.6668Z" fill="#E2F1FB"/>
<path d="M44.3958 5.3335H25.6458V58.6668H44.3958C45.2587 58.6668 45.9583 57.9672 45.9583 57.1043V6.896C45.9583 6.03308 45.2587 5.3335 44.3958 5.3335Z" fill="#B9DBF5"/>
<path d="M36.0624 31.4795H13.1458C12.2828 31.4795 11.5833 30.7799 11.5833 29.917C11.5833 29.0541 12.2828 28.3545 13.1458 28.3545H36.0624C36.9253 28.3545 37.6249 29.0541 37.6249 29.917C37.6249 30.7799 36.9253 31.4795 36.0624 31.4795Z" fill="#8EC5EF"/>
<path d="M36.0624 25.4375H13.1458C12.2828 25.4375 11.5833 24.7379 11.5833 23.875C11.5833 23.0121 12.2828 22.3125 13.1458 22.3125H36.0624C36.9253 22.3125 37.6249 23.0121 37.6249 23.875C37.6249 24.7379 36.9253 25.4375 36.0624 25.4375Z" fill="#8EC5EF"/>
<path d="M35.8542 19.396H12.9375C12.0746 19.396 11.375 18.6964 11.375 17.8335C11.375 16.9706 12.0746 16.271 12.9375 16.271H35.8542C36.7171 16.271 37.4167 16.9706 37.4167 17.8335C37.4167 18.6964 36.7171 19.396 35.8542 19.396Z" fill="#8EC5EF"/>
<path d="M36.0624 13.3545H13.1458C12.2828 13.3545 11.5833 12.6549 11.5833 11.792C11.5833 10.9291 12.2828 10.2295 13.1458 10.2295H36.0624C36.9253 10.2295 37.6249 10.9291 37.6249 11.792C37.6249 12.6549 36.9253 13.3545 36.0624 13.3545Z" fill="#8EC5EF"/>
<path d="M28.7708 37.7295H13.1458C12.2828 37.7295 11.5833 37.0299 11.5833 36.167C11.5833 35.3041 12.2828 34.6045 13.1458 34.6045H28.7708C29.6337 34.6045 30.3333 35.3041 30.3333 36.167C30.3333 37.0299 29.6337 37.7295 28.7708 37.7295Z" fill="#8EC5EF"/>
<path d="M26.6874 43.9795H13.1458C12.2828 43.9795 11.5833 43.2799 11.5833 42.417C11.5833 41.5541 12.2828 40.8545 13.1458 40.8545H26.6874C27.5503 40.8545 28.2499 41.5541 28.2499 42.417C28.2499 43.2799 27.5503 43.9795 26.6874 43.9795Z" fill="#8EC5EF"/>
<path d="M13.1458 47.1045C12.2828 47.1045 11.5833 47.8041 11.5833 48.667C11.5833 49.5299 12.2828 50.2295 13.1458 50.2295H32.1313V47.1045H13.1458Z" fill="#63AEE8"/>
<path d="M36.0624 28.3545H25.6458V31.4795H36.0624C36.9253 31.4795 37.6249 30.7799 37.6249 29.917C37.6249 29.0541 36.9253 28.3545 36.0624 28.3545Z" fill="#63AEE8"/>
<path d="M36.2707 22.3125H25.854V25.4375H36.2707C37.1336 25.4375 37.8332 24.7379 37.8332 23.875C37.8332 23.0121 37.1336 22.3125 36.2707 22.3125Z" fill="#63AEE8"/>
<path d="M36.0624 16.271H25.6458V19.396H36.0624C36.9253 19.396 37.6249 18.6964 37.6249 17.8335C37.6249 16.9706 36.9253 16.271 36.0624 16.271Z" fill="#63AEE8"/>
<path d="M36.2707 10.2295H25.854V13.3545H36.2707C37.1336 13.3545 37.8332 12.6549 37.8332 11.792C37.8332 10.9291 37.1336 10.2295 36.2707 10.2295Z" fill="#63AEE8"/>
<path d="M28.7708 37.7295C29.6337 37.7295 30.3333 37.0299 30.3333 36.167C30.3333 35.3041 29.6337 34.6045 28.7708 34.6045H25.6458V37.7295H28.7708Z" fill="#63AEE8"/>
<path d="M26.6874 43.9795C27.5503 43.9795 28.2499 43.2799 28.2499 42.417C28.2499 41.5541 27.5503 40.8545 26.6874 40.8545H25.6458V43.9795H26.6874Z" fill="#63AEE8"/>
<path d="M25.6458 47.1045H32.1313V50.2295H25.6458V47.1045Z" fill="#63AEE8"/>
<path d="M31.0263 49.7714C30.5384 49.2835 30.4283 48.5333 30.7554 47.9258L33.3335 43.1381C33.5676 42.7032 33.9936 42.4047 34.4823 42.333C34.971 42.2612 35.4648 42.4248 35.8141 42.774L38.0238 44.9837C38.3731 45.333 38.5366 45.8268 38.4648 46.3155C38.3932 46.8042 38.0945 47.2302 37.6597 47.4644L32.872 50.0424C32.2644 50.3695 31.5142 50.2594 31.0263 49.7714Z" fill="#FAC38C"/>
<path d="M53.4918 29.516L51.2821 27.3063C50.6719 26.6961 49.6826 26.6961 49.0724 27.3063L33.6045 42.7742L38.0239 47.1936L53.4918 31.7257C54.102 31.1155 54.102 30.1262 53.4918 29.516Z" fill="#1E80D3"/>
<path d="M57.5428 23.2552C56.3224 22.0347 54.3437 22.0347 53.1234 23.2552L49.0723 27.3063L53.4916 31.7257L57.5428 27.6745C58.7632 26.4542 58.7632 24.4756 57.5428 23.2552Z" fill="#63AEE8"/>
</svg>
