<svg width="40" height="40" viewBox="0 0 40 40" fill="none" xmlns="http://www.w3.org/2000/svg">
<rect x="0.640625" y="0.640625" width="38.7188" height="38.7188" rx="19.3594" fill="#E2F5FC"/>
<path d="M27.2895 15.4657C27.0416 15.3252 26.7616 15.2591 26.4803 15.2745C26.1989 15.2899 25.927 15.3863 25.6943 15.5531L22.7342 17.639V15.9805C22.7337 15.5238 22.5607 15.0859 22.2531 14.7629C21.9455 14.44 21.5285 14.2583 21.0936 14.2578H13.4375C13.0025 14.2583 12.5855 14.44 12.2779 14.7629C11.9704 15.0859 11.7974 15.5238 11.7969 15.9805V24.0195C11.7974 24.4762 11.9704 24.9141 12.2779 25.2371C12.5855 25.56 13.0025 25.7417 13.4375 25.7422H21.0936C21.5285 25.7417 21.9455 25.56 22.2531 25.2371C22.5607 24.9141 22.7337 24.4762 22.7342 24.0195V22.3608L25.6949 24.4469C25.927 24.6148 26.1989 24.7119 26.4804 24.7273C26.762 24.7427 27.042 24.6759 27.2895 24.5343C27.5714 24.3699 27.8053 24.1281 27.9662 23.8347C28.1271 23.5413 28.2089 23.2075 28.2028 22.869V17.1312C28.2089 16.7927 28.1272 16.4588 27.9663 16.1654C27.8054 15.872 27.5714 15.6301 27.2895 15.4657ZM21.6404 24.0195C21.6403 24.1718 21.5826 24.3177 21.4801 24.4254C21.3775 24.533 21.2386 24.5936 21.0936 24.5938H13.4375C13.2925 24.5936 13.1535 24.533 13.051 24.4254C12.9484 24.3177 12.8908 24.1718 12.8906 24.0195V15.9805C12.8908 15.8282 12.9484 15.6823 13.051 15.5746C13.1535 15.467 13.2925 15.4064 13.4375 15.4062H21.0936C21.2386 15.4064 21.3775 15.467 21.4801 15.5746C21.5826 15.6823 21.6403 15.8282 21.6404 15.9805V24.0195ZM27.1091 22.8688C27.115 22.9992 27.087 23.1289 27.0281 23.2439C26.9692 23.3589 26.8816 23.4548 26.7747 23.5216C26.702 23.5647 26.619 23.585 26.5357 23.5801C26.4523 23.5751 26.372 23.5451 26.3044 23.4935L22.7342 20.978V19.022L26.3038 16.5069C26.3718 16.4561 26.4521 16.4266 26.5354 16.4216C26.6187 16.4167 26.7017 16.4365 26.7747 16.4789C26.8815 16.5456 26.9691 16.6415 27.028 16.7564C27.0869 16.8713 27.1149 17.0009 27.1091 17.1312V22.8688Z" fill="#329AD6"/>
<rect x="0.640625" y="0.640625" width="38.7188" height="38.7188" rx="19.3594" stroke="#88D3F2" stroke-width="0.65625"/>
</svg>
