<svg xmlns="http://www.w3.org/2000/svg" xmlns:xlink="http://www.w3.org/1999/xlink" width="90" height="90" viewBox="0 0 90 90">
  <defs>
    <filter id="Ellipse_330" x="0" y="0" width="90" height="90" filterUnits="userSpaceOnUse">
      <feOffset dy="3" input="SourceAlpha"/>
      <feGaussianBlur stdDeviation="3" result="blur"/>
      <feFlood flood-opacity="0.161"/>
      <feComposite operator="in" in2="blur"/>
      <feComposite in="SourceGraphic"/>
    </filter>
  </defs>
  <g id="video_call" data-name="video call" transform="translate(-9185 -8193)">
    <g transform="matrix(1, 0, 0, 1, 9185, 8193)" filter="url(#Ellipse_330)">
      <circle id="Ellipse_330-2" data-name="Ellipse 330" cx="36" cy="36" r="36" transform="translate(9 6)" fill="#fff"/>
    </g>
    <path id="video-camera" d="M29.117,1.653a.624.624,0,0,0-.617-.011L21.749,5.328V3.117A3.12,3.12,0,0,0,18.632,0H3.117A3.12,3.12,0,0,0,0,3.117V15.423a3.12,3.12,0,0,0,3.117,3.117H18.632a3.12,3.12,0,0,0,3.117-3.117V13.251L28.5,16.937a.623.623,0,0,0,.922-.547V2.189a.623.623,0,0,0-.305-.536ZM20.5,15.423a1.872,1.872,0,0,1-1.87,1.87H3.117a1.872,1.872,0,0,1-1.87-1.87V3.117a1.872,1.872,0,0,1,1.87-1.87H18.632a1.872,1.872,0,0,1,1.87,1.87Zm7.673-.083-6.426-3.509V6.748L28.175,3.24Zm0,0" transform="translate(9215.499 8225.5)" fill="#565b74" stroke="#565b74" stroke-width="0.7"/>
  </g>
</svg>
