<svg xmlns="http://www.w3.org/2000/svg" xmlns:xlink="http://www.w3.org/1999/xlink" width="90" height="90" viewBox="0 0 90 90">
  <defs>
    <filter id="Ellipse_329" x="0" y="0" width="90" height="90" filterUnits="userSpaceOnUse">
      <feOffset dy="3" input="SourceAlpha"/>
      <feGaussianBlur stdDeviation="3" result="blur"/>
      <feFlood flood-opacity="0.161"/>
      <feComposite operator="in" in2="blur"/>
      <feComposite in="SourceGraphic"/>
    </filter>
  </defs>
  <g id="Yellow_Network" data-name="Yellow Network" transform="translate(-726 -907)">
    <g id="Group_1054" data-name="Group 1054" transform="translate(-8360 -7286)">
      <g transform="matrix(1, 0, 0, 1, 9086, 8193)" filter="url(#Ellipse_329)">
        <circle id="Ellipse_329-2" data-name="Ellipse 329" cx="36" cy="36" r="36" transform="translate(9 6)" fill="#fff"/>
      </g>
    </g>
    <g id="signal" transform="translate(753 908.309)">
      <g id="Group_2165" data-name="Group 2165" transform="translate(0 42.559)">
        <path id="Path_15710" data-name="Path 15710" d="M6.313,294.342H5.122a.525.525,0,0,1-.525-.525c0-.29,1.22-.29,1.22,0a.525.525,0,0,1-.525.525H1.366A1.367,1.367,0,0,1,0,292.976v-11.8a1.367,1.367,0,0,1,1.366-1.366H6.313a1.367,1.367,0,0,1,1.366,1.366v11.8A1.367,1.367,0,0,1,6.313,294.342Z" transform="translate(0 -279.809)" fill="#e9d200"/>
      </g>
      <g id="Group_2166" data-name="Group 2166" transform="translate(9.394 36.603)">
        <path id="Path_15711" data-name="Path 15711" d="M140.435,215.259h-4.947a1.367,1.367,0,0,1-1.366-1.366V196.136a1.367,1.367,0,0,1,1.366-1.366h4.947a1.367,1.367,0,0,1,1.366,1.366v17.757A1.367,1.367,0,0,1,140.435,215.259Z" transform="translate(-134.123 -194.77)" fill="#e9d200"/>
      </g>
      <g id="Group_2167" data-name="Group 2167" transform="translate(18.787 30.647)">
        <path id="Path_15712" data-name="Path 15712" d="M274.559,136.174h-4.947a1.367,1.367,0,0,1-1.366-1.366V111.1a1.367,1.367,0,0,1,1.366-1.366h4.947a1.367,1.367,0,0,1,1.366,1.366v23.713A1.367,1.367,0,0,1,274.559,136.174Z" transform="translate(-268.246 -109.73)" fill="#e9d200"/>
      </g>
      <g id="Group_2168" data-name="Group 2168" transform="translate(28.181 24.691)">
        <path id="Path_15713" data-name="Path 15713" d="M408.682,57.091h-4.947a1.367,1.367,0,0,1-1.366-1.366V26.057a1.367,1.367,0,0,1,1.366-1.366h4.947a1.367,1.367,0,0,1,1.366,1.366v9.737a.525.525,0,0,1-.525.525c-.29,0-.29-2.064,0-2.064a.525.525,0,0,1,.525.525V55.726A1.367,1.367,0,0,1,408.682,57.091Z" transform="translate(-402.369 -24.691)" fill="#e9d200"/>
      </g>
    </g>
  </g>
</svg>
